<svg width="58" height="58" viewBox="0 0 58 58" fill="none" xmlns="http://www.w3.org/2000/svg">
<path d="M7.21212 2.75493C8.20792 2.70533 9.19337 2.97642 10.0237 3.52836C10.6463 3.94235 11.3774 4.1632 12.1251 4.1632C12.8729 4.1632 13.6039 3.94235 14.2266 3.52836C15.0568 2.97699 16.0419 2.70617 17.0372 2.75563C18.1029 2.80701 19.1191 3.22031 19.9181 3.92726C20.7171 4.6342 21.2511 5.59253 21.4319 6.64396C21.6127 7.69539 21.4295 8.77704 20.9126 9.71029C20.3956 10.6435 19.5758 11.3726 18.5886 11.777C18.0657 11.9858 17.6172 12.3462 17.3007 12.8119C16.9842 13.2775 16.8142 13.8272 16.8125 14.3902V19.625H18.6875V14.3902C18.6899 14.1995 18.7494 14.0139 18.8583 13.8573C18.9671 13.7006 19.1204 13.5802 19.2983 13.5113C20.1455 13.164 20.9108 12.6432 21.5447 11.9825C22.1787 11.3217 22.6673 10.5356 22.9793 9.67462C23.2912 8.81368 23.4195 7.89699 23.3559 6.98349C23.2923 6.06999 23.0383 5.17991 22.6101 4.37049C22.1819 3.56106 21.589 2.8502 20.8696 2.28363C20.1503 1.71706 19.3203 1.30731 18.433 1.08073C17.5458 0.85415 16.621 0.815759 15.718 0.968026C14.8151 1.12029 13.954 1.45984 13.1901 1.96485C12.8745 2.17455 12.504 2.28641 12.1251 2.28641C11.7463 2.28641 11.3758 2.17455 11.0602 1.96485C9.89842 1.19185 8.51925 0.812054 7.12552 0.881333C6.09622 0.933795 5.09356 1.2269 4.19807 1.7371C3.30258 2.24731 2.53921 2.9604 1.96927 3.81911L3.53068 4.85727C3.93722 4.24342 4.48205 3.73346 5.12141 3.36835C5.76077 3.00323 6.47685 2.79313 7.21212 2.75493Z" fill="#4472C4"/>
<path d="M19.2969 44.4879C19.1193 44.4189 18.9664 44.2985 18.8579 44.142C18.7493 43.9856 18.6899 43.8002 18.6875 43.6098V28.0625H16.8125V43.6098C16.814 44.1727 16.9839 44.7223 17.3002 45.188C17.6165 45.6537 18.0648 46.0141 18.5875 46.223C19.1926 46.4711 19.7391 46.8431 20.1918 47.315C20.6446 47.7869 20.9936 48.3483 21.2164 48.9631C21.4392 49.5779 21.5309 50.2326 21.4856 50.885C21.4403 51.5373 21.2589 52.173 20.9533 52.7512C20.6476 53.3293 20.2244 53.8371 19.7107 54.2418C19.1971 54.6466 18.6044 54.9394 17.9709 55.1015C17.3373 55.2635 16.6769 55.2912 16.032 55.1828C15.3871 55.0743 14.772 54.8321 14.2263 54.4718C13.6036 54.0578 12.8725 53.8369 12.1248 53.8369C11.3771 53.8369 10.646 54.0578 10.0233 54.4718C9.19323 55.0233 8.20813 55.2942 7.21272 55.2445C6.14709 55.1931 5.13086 54.7798 4.33185 54.0729C3.53283 53.3659 2.99883 52.4076 2.81802 51.3562C2.63722 50.3047 2.82042 49.2231 3.33738 48.2898C3.85434 47.3566 4.67414 46.6276 5.66139 46.2232C6.18429 46.0143 6.63281 45.6539 6.9493 45.1882C7.26579 44.7225 7.4358 44.1728 7.43748 43.6098V14.3902C7.43594 13.8273 7.26611 13.2777 6.94981 12.812C6.6335 12.3463 6.18518 11.9859 5.66244 11.777C4.77343 11.4101 4.01811 10.7798 3.49813 9.97075C2.97814 9.16172 2.71844 8.21283 2.75397 7.25176C2.76161 7.05228 2.7822 6.8535 2.81561 6.65668L0.966857 6.34332C0.718938 7.81328 0.978543 9.32384 1.70299 10.6267C2.42745 11.9295 3.57363 12.9471 4.95311 13.5122C5.13064 13.5811 5.28352 13.7015 5.39211 13.858C5.50069 14.0145 5.56002 14.1998 5.56248 14.3902V43.6098C5.56001 43.8005 5.50052 43.9861 5.39167 44.1427C5.28282 44.2994 5.12959 44.4199 4.9517 44.4887C3.56942 45.0549 2.42164 46.0757 1.69796 47.3825C0.974275 48.6893 0.717994 50.2038 0.971445 51.6759C1.2249 53.148 1.97292 54.4896 3.09194 55.4791C4.21097 56.4686 5.63405 57.0468 7.12612 57.1182C7.23018 57.1227 7.33397 57.125 7.43748 57.125C8.72628 57.1279 9.98697 56.7484 11.06 56.0345C11.3755 55.8247 11.746 55.7128 12.1249 55.7128C12.5038 55.7128 12.8743 55.8247 13.1899 56.0345C14.3517 56.8073 15.7309 57.187 17.1246 57.118C18.6168 57.0466 20.04 56.4682 21.159 55.4785C22.2781 54.4888 23.026 53.147 23.2792 51.6747C23.5324 50.2024 23.2758 48.6877 22.5517 47.381C21.8277 46.0743 20.6795 45.0537 19.2969 44.4879Z" fill="#4472C4"/>
<path d="M11.1875 19.625H9.31247V44H11.1875V19.625Z" fill="#4472C4"/>
<path d="M11.1875 15.875H9.31247V17.75H11.1875V15.875Z" fill="#4472C4"/>
<path d="M43.794 27.0107L40.9827 25.6368C40.4624 25.3837 39.8914 25.2522 39.3128 25.2522C38.7342 25.2522 38.1632 25.3837 37.6429 25.6368L34.8304 27.0114C34.2076 27.3098 33.6818 27.7782 33.3137 28.3625C32.9456 28.9469 32.7502 29.6233 32.75 30.314V34.2491C32.7521 34.8459 32.8994 35.4333 33.1791 35.9605C33.4587 36.4877 33.8625 36.939 34.3554 37.2754C35.3491 37.9515 36.563 38.3988 37.6424 38.9264C38.1627 39.1795 38.7338 39.311 39.3124 39.311C39.8909 39.311 40.462 39.1795 40.9823 38.9264C42.0677 38.3959 43.2767 37.9592 44.2752 37.2719C44.7668 36.9353 45.1693 36.4844 45.4479 35.9578C45.7266 35.4312 45.8732 34.8449 45.875 34.2491V30.314C45.8748 29.6232 45.6794 28.9465 45.3111 28.362C44.9429 27.7775 44.417 27.3091 43.794 27.0107ZM44 30.314V31.5935L43.1547 31.1806C42.8479 31.0352 42.5884 30.8061 42.4063 30.5197C42.2241 30.2332 42.1265 29.9011 42.125 29.5616V28.2819L42.9702 28.695C43.277 28.8404 43.5365 29.0695 43.7187 29.3559C43.9008 29.6424 43.9984 29.9745 44 30.314ZM39.3125 27.1256C39.6054 27.1253 39.8946 27.192 40.1579 27.3204L40.2501 27.3655V29.5616C40.2502 30.2524 40.4457 30.9291 40.8139 31.5136C41.1821 32.0981 41.7081 32.5665 42.3311 32.8649L44 33.6803V34.2491C43.9987 34.6522 43.8608 35.043 43.6087 35.3576L40.9827 34.0743C40.4624 33.8212 39.8914 33.6897 39.3128 33.6897C38.7342 33.6897 38.1632 33.8212 37.6429 34.0743L35.0167 35.3575C34.7643 35.0431 34.6262 34.6523 34.625 34.2491V33.6803L36.2947 32.8647C36.9175 32.5662 37.4433 32.0977 37.8114 31.5133C38.1795 30.9289 38.3748 30.2523 38.375 29.5616V27.3655L38.4678 27.3202C38.7308 27.1918 39.0198 27.1252 39.3125 27.1256ZM35.6541 28.696L36.5 28.2819V29.5616C36.4984 29.901 36.401 30.233 36.2189 30.5194C36.0369 30.8057 35.7776 31.0348 35.4709 31.1802L34.625 31.5935V30.314C34.6266 29.9746 34.724 29.6426 34.906 29.3563C35.0881 29.0699 35.3474 28.8408 35.654 28.6954L35.6541 28.696ZM40.1573 37.2436C39.8939 37.3718 39.6049 37.4383 39.312 37.4383C39.0191 37.4383 38.7301 37.3718 38.4667 37.2436L36.9483 36.5001L38.4678 35.7574C38.7311 35.6293 39.0202 35.5628 39.3131 35.5628C39.6059 35.5628 39.895 35.6293 40.1583 35.7574L41.6766 36.5001L40.1573 37.2436Z" fill="#4472C4"/>
<path d="M55.0859 25.7578C53.1331 21.9798 49.9241 19.0009 46.0116 17.3339C42.099 15.667 37.7277 15.4163 33.6502 16.625C30.2983 17.6417 27.2998 19.5805 24.9971 22.22L16.0571 21.8911C15.8662 21.884 15.6777 21.9355 15.5169 22.0385C15.356 22.1416 15.2305 22.2913 15.1571 22.4677C15.0837 22.644 15.0659 22.8386 15.1062 23.0254C15.1464 23.2121 15.2427 23.3821 15.3822 23.5126L20.3593 28.1684L21.29 29.0391C21.0791 29.7646 20.9129 30.5024 20.7924 31.2482C20.7914 31.2547 20.7903 31.2612 20.7895 31.2678C20.638 32.2232 20.5621 33.189 20.5625 34.1562C20.5625 42.0898 26.0574 49.4452 33.6575 51.6912C37.2516 52.7303 41.0752 52.6645 44.6314 51.5023C47.5888 50.5061 50.2451 48.7757 52.3517 46.4732C53.6784 45.0217 54.7617 43.3653 55.5598 41.5681L53.8462 40.8064C53.6375 41.2762 53.4069 41.7355 53.1542 42.1843C52.8234 41.2858 52.1564 40.5509 51.294 40.1349L48.4828 38.7617C47.9624 38.5087 47.3914 38.3772 46.8128 38.3772C46.2342 38.3772 45.6632 38.5087 45.1429 38.7617L42.3304 40.1363C41.7076 40.4347 41.1819 40.9031 40.8138 41.4874C40.4457 42.0717 40.2502 42.7481 40.25 43.4387V47.3738C40.252 47.9439 40.3866 48.5057 40.6432 49.0148C40.8998 49.5238 41.2713 49.9662 41.7284 50.3069C40.0781 50.602 38.3922 50.6418 36.7298 50.4249C36.7444 50.4153 36.7593 50.407 36.774 50.397C37.2659 50.0606 37.6686 49.6096 37.9475 49.083C38.2264 48.5563 38.3731 47.9698 38.375 47.3738V43.4387C38.3749 42.7479 38.1794 42.0712 37.8112 41.4867C37.443 40.9022 36.917 40.4338 36.294 40.1354L33.4828 38.7617C32.9624 38.5087 32.3914 38.3772 31.8128 38.3772C31.2342 38.3772 30.6632 38.5087 30.1429 38.7617L27.3304 40.1363C26.722 40.4282 26.206 40.8825 25.8395 41.4492C25.473 42.0158 25.2701 42.6726 25.2534 43.3473C24.3757 42.0533 23.6887 40.6398 23.2134 39.1502C24.1314 39.4263 25.1197 39.3468 25.9817 38.9275C27.0639 38.3987 28.2765 37.9518 29.2747 37.273C29.7666 36.9364 30.1693 36.4852 30.448 35.9584C30.7268 35.4316 30.8733 34.8449 30.875 34.2488V30.3137C30.8748 29.6229 30.6794 28.9462 30.3112 28.3617C29.9429 27.7772 29.417 27.3088 28.794 27.0104L25.9828 25.6367C25.4625 25.3836 24.8914 25.2521 24.3128 25.2521C23.7342 25.2521 23.1632 25.3836 22.6429 25.6367L21.1683 26.3581L18.4951 23.8573L25.3857 24.1108C25.5301 24.1157 25.6738 24.0874 25.8055 24.028C25.9372 23.9685 26.0535 23.8796 26.1454 23.768C26.1817 23.7236 26.2188 23.6803 26.2553 23.6367C26.1351 23.787 28.2318 24.9007 28.3432 24.9609C29.413 25.5406 30.5606 26.1864 31.8131 26.1863C33.3609 26.1863 34.938 25.0904 36.2957 24.4269C36.9125 24.1207 37.4329 23.6504 37.7998 23.0677C38.1666 22.485 38.3656 21.8123 38.375 21.1238V17.7571C39.0005 17.7396 39.6265 17.7574 40.25 17.8106V21.1238C40.2521 21.7206 40.3994 22.3079 40.6791 22.8351C40.9588 23.3623 41.3625 23.8136 41.8555 24.15C42.8491 24.8258 44.063 25.2736 45.1424 25.8011C45.6628 26.0542 46.2338 26.1857 46.8124 26.1857C47.391 26.1857 47.962 26.0542 48.4823 25.8011L51.2963 24.4257C51.462 24.3441 51.6217 24.2509 51.7742 24.1468C51.7887 24.1368 51.8019 24.1255 51.8162 24.1153C52.1758 24.5769 52.5104 25.0576 52.8186 25.555C52.7594 25.5804 52.7011 25.6072 52.6435 25.6355L49.831 27.0102C49.2079 27.3085 48.6819 27.777 48.3137 28.3616C47.9455 28.9461 47.7501 29.6228 47.75 30.3137V34.2488C47.7521 34.8456 47.8994 35.4329 48.1791 35.9601C48.4588 36.4873 48.8625 36.9386 49.3555 37.275C49.5073 37.3784 49.6662 37.4711 49.8311 37.5521L52.6424 38.9261C53.1626 39.1792 53.7334 39.3107 54.3118 39.3108C54.8902 39.3109 55.4611 39.1796 55.9813 38.9268L56.1735 38.8331C56.2999 38.7715 56.4107 38.6824 56.498 38.5722C56.5852 38.4621 56.6465 38.3337 56.6774 38.1966C57.6167 33.9918 57.0536 29.5907 55.0859 25.7578ZM51.5 43.4387V44.5959C51.4765 44.6248 51.4517 44.6538 51.4274 44.6827L50.6547 44.3053C50.3479 44.1599 50.0885 43.9308 49.9063 43.6444C49.7241 43.3579 49.6266 43.0258 49.625 42.6863V41.4066L50.4703 41.8197C50.777 41.9651 51.0365 42.1942 51.2187 42.4806C51.4009 42.7671 51.4984 43.0992 51.5 43.4387ZM47.6578 40.4451L47.75 40.4902V42.6863C47.7502 43.3771 47.9456 44.0538 48.3139 44.6383C48.6821 45.2228 49.2081 45.6913 49.8311 45.9897L50.0787 46.1105C49.6327 46.5303 49.1635 46.9247 48.6734 47.292L48.4828 47.1989C47.9625 46.9457 47.3915 46.8141 46.8129 46.814C46.2343 46.8139 45.6633 46.9453 45.1429 47.1983L42.5163 48.4821C42.264 48.1677 42.1261 47.7769 42.125 47.3738V46.8052L43.7947 45.9896C44.4175 45.6911 44.9433 45.2227 45.3114 44.6382C45.6795 44.0538 45.8749 43.3772 45.875 42.6866V40.4902L45.9678 40.4449C46.2311 40.3168 46.52 40.2503 46.8128 40.2504C47.1056 40.2504 47.3945 40.317 47.6578 40.4451ZM43.154 41.8203L44 41.4066V42.6866C43.9984 43.0259 43.901 43.3579 43.719 43.6443C43.5369 43.9307 43.2776 44.1598 42.971 44.3052L42.125 44.7185V43.4387C42.1266 43.0994 42.224 42.7674 42.4061 42.4811C42.5882 42.1947 42.8474 41.9657 43.154 41.8203ZM33.8478 49.7855C32.9842 49.5102 32.1451 49.1633 31.3392 48.7484C31.781 48.6363 32.2482 48.684 32.6583 48.8829L34.1765 49.625L33.8478 49.7855ZM36.5 43.4387V44.7185L35.6547 44.3055C35.3479 44.1602 35.0885 43.931 34.9063 43.6446C34.7241 43.3582 34.6266 43.026 34.625 42.6866V41.4066L35.4703 41.8197C35.7771 41.9651 36.0365 42.1942 36.2187 42.4806C36.4009 42.7671 36.4984 43.0992 36.5 43.4387ZM32.6578 40.4451L32.75 40.4902V42.6866C32.7501 43.3774 32.9456 44.054 33.3138 44.6385C33.682 45.223 34.208 45.6915 34.831 45.9898L36.5 46.8052V47.3738C36.4987 47.777 36.3608 48.1677 36.1087 48.4823L33.4828 47.1992C32.9626 46.9462 32.3918 46.8146 31.8133 46.8145C31.2349 46.8144 30.664 46.9457 30.1437 47.1985L29.3907 47.5661C28.8842 47.2083 28.3982 46.8221 27.9351 46.4096L28.7947 45.9896C29.4176 45.6912 29.9435 45.2227 30.3116 44.6382C30.6796 44.0537 30.875 43.3771 30.875 42.6863V40.4902L30.9678 40.4449C31.2311 40.3168 31.52 40.2503 31.8128 40.2504C32.1056 40.2504 32.3945 40.317 32.6578 40.4451ZM27.125 43.4387C27.1265 43.0993 27.2239 42.7673 27.406 42.4809C27.5881 42.1946 27.8474 41.9655 28.154 41.8201L29 41.4069V42.6863C28.9984 43.0257 28.901 43.3577 28.719 43.6441C28.5369 43.9304 28.2776 44.1595 27.971 44.3049L27.125 44.7182V43.4387ZM25.1572 37.2426C24.8939 37.3707 24.6049 37.4373 24.312 37.4373C24.0192 37.4373 23.7302 37.3707 23.4669 37.2426L22.6576 36.8468C22.6555 36.835 22.6538 36.822 22.6518 36.8097C22.6236 36.6358 22.5986 36.4607 22.5759 36.2852C22.5721 36.2565 22.5686 36.2277 22.5651 36.1989L23.4674 35.7578C23.7308 35.6297 24.0198 35.5631 24.3127 35.5631C24.6056 35.5631 24.8946 35.6297 25.158 35.7578L26.6767 36.5L25.1572 37.2426ZM29 30.3137V31.5929L28.1547 31.18C27.8479 31.0347 27.5885 30.8056 27.4063 30.5191C27.2241 30.2327 27.1266 29.9006 27.125 29.5611V28.2816L27.9703 28.6947C28.277 28.8401 28.5365 29.0692 28.7187 29.3556C28.9009 29.6421 28.9984 29.9742 29 30.3137ZM25.1578 27.3201L25.25 27.3652V29.5611C25.2501 30.2519 25.4456 30.9286 25.8138 31.513C26.182 32.0975 26.708 32.566 27.331 32.8644L29 33.6796V34.2488C28.9987 34.652 28.8608 35.0427 28.6087 35.3573L25.9828 34.0742C25.4625 33.8211 24.8915 33.6895 24.3129 33.6894C23.7343 33.6893 23.1633 33.8207 22.6429 34.0736L22.4375 34.1738C22.4375 34.168 22.4375 34.1621 22.4375 34.1562C22.4383 33.3654 22.4957 32.5757 22.6093 31.793C23.1055 31.1549 23.3749 30.3697 23.375 29.5613V27.3652L23.4678 27.3199C23.7311 27.1918 24.02 27.1253 24.3128 27.1254C24.6056 27.1254 24.8945 27.192 25.1578 27.3201ZM36.1088 22.2321L33.4828 20.9492C32.9625 20.6961 32.3914 20.5646 31.8128 20.5646C31.2342 20.5646 30.6632 20.6961 30.1429 20.9492L27.6483 22.168C29.3303 20.596 31.324 19.3951 33.5 18.6432C33.8521 19.1076 34.3081 19.4831 34.8314 19.7396L36.5 20.5549V21.1238C36.4987 21.5269 36.3608 21.9175 36.1088 22.2321ZM35.6635 18.0596C35.9408 18.0049 36.2196 17.9577 36.5 17.9178V18.4686L35.6635 18.0596ZM32.6572 24.1176C32.3938 24.2458 32.1048 24.3123 31.8119 24.3123C31.519 24.3123 31.23 24.2458 30.9666 24.1176L29.448 23.375L30.9678 22.6321C31.2312 22.504 31.5202 22.4375 31.8131 22.4375C32.1059 22.4375 32.395 22.504 32.6583 22.6321L34.177 23.375L32.6572 24.1176ZM42.5165 22.2318C42.2643 21.9175 42.1262 21.5268 42.125 21.1238V20.5549L43.7941 19.7396C44.214 19.5351 44.5917 19.2533 44.9074 18.9091C46.2778 19.4556 47.5682 20.1846 48.7436 21.0763L48.4826 20.9486C47.9623 20.6955 47.3913 20.564 46.8127 20.564C46.2341 20.564 45.6631 20.6955 45.1428 20.9486L42.5165 22.2318ZM42.6744 18.1998L42.125 18.4681V18.0796C42.3087 18.1169 42.4921 18.1562 42.6744 18.1998ZM47.6572 24.1177C47.3938 24.2459 47.1048 24.3125 46.8119 24.3125C46.519 24.3125 46.23 24.2459 45.9666 24.1177L44.448 23.375L45.9678 22.6321C46.2312 22.504 46.5202 22.4375 46.8131 22.4375C47.1059 22.4375 47.395 22.504 47.6583 22.6321L49.177 23.375L47.6572 24.1177ZM53.7158 27.2195C54.6833 29.2827 55.2045 31.5269 55.2452 33.8054C54.3735 33.5856 53.4523 33.6804 52.6436 34.0729L50.017 35.3567C49.7645 35.0425 49.6263 34.6519 49.625 34.2488V33.6796L51.2947 32.864C51.9175 32.5656 52.4433 32.0971 52.8114 31.5127C53.1795 30.9283 53.3749 30.2518 53.375 29.5611V27.3652L53.4687 27.3193C53.5486 27.2801 53.6312 27.2467 53.7159 27.2193L53.7158 27.2195ZM50.654 28.6953L51.5 28.2816V29.5611C51.4984 29.9004 51.401 30.2324 51.2189 30.5188C51.0368 30.8052 50.7776 31.0343 50.471 31.1797L49.625 31.5929V30.3137C49.6266 29.9744 49.724 29.6424 49.9061 29.3561C50.0882 29.0698 50.3474 28.8407 50.654 28.6953ZM53.4665 37.2424L51.9483 36.5L53.4678 35.7574C53.7313 35.6293 54.0204 35.5628 54.3134 35.563C54.6063 35.5631 54.8954 35.6298 55.1588 35.7581L55.1705 35.7641C55.1194 36.2896 55.0437 36.8141 54.9425 37.3318C54.4581 37.4985 53.9273 37.4662 53.4666 37.2421L53.4665 37.2424Z" fill="#4472C4"/>
</svg>
