<svg width="60" height="60" viewBox="0 0 60 60" fill="none" xmlns="http://www.w3.org/2000/svg">
<path d="M19.3743 45.5625C20.0774 45.811 20.8133 45.9375 21.5624 45.9375V44.0625C21.0271 44.0625 20.5011 43.9725 20.0005 43.7953L19.3743 45.5625Z" fill="#4472C4"/>
<path d="M16.875 39.375V39.1153C16.875 38.28 17.0991 37.4588 17.5228 36.7397L19.5525 33.2878L17.9353 32.3372L15.9066 35.7882C15.3141 36.7941 15 37.9453 15 39.1153V39.375C15 41.235 15.7978 43.0172 17.1863 44.2622L18.4388 42.8672C17.4441 41.9757 16.875 40.7035 16.875 39.375Z" fill="#4472C4"/>
<path d="M14.5143 25.2122L13.7437 23.5031C13.1418 23.7741 12.554 24.0666 11.999 24.3703L12.9 26.0147C13.4137 25.7334 13.9565 25.4634 14.5143 25.2122Z" fill="#4472C4"/>
<path d="M6.10962 29.6372L7.71368 30.6075C7.99774 30.1388 8.33806 29.6766 8.72618 29.2331L7.31618 27.9984C6.85493 28.5225 6.44993 29.0747 6.10962 29.6372Z" fill="#4472C4"/>
<path d="M4.75586 33.5231L6.61773 33.7444C6.68242 33.1922 6.80898 32.6475 6.99273 32.1235L5.22367 31.5028C4.99492 32.1563 4.83742 32.835 4.75586 33.5231Z" fill="#4472C4"/>
<path d="M10.3227 25.3912C9.75644 25.7737 9.22675 26.1769 8.74487 26.5903L9.96644 28.0134C10.393 27.6469 10.8664 27.2878 11.3736 26.9447L10.3227 25.3912Z" fill="#4472C4"/>
<path d="M59.0625 45.9375C59.0625 39.9581 56.7281 36.5916 54.2559 33.0272C51.5494 29.1216 48.75 25.0837 48.75 16.875V15H45.9375C42.7734 15 40.6753 17.0616 40.5872 17.1497L40.1766 17.5594L40.3603 18.1087C40.3781 18.1641 42.1875 23.6203 42.1875 26.25C42.1875 27.4247 41.8931 28.455 41.3906 29.3878C39.5494 24.5081 34.8525 21.7153 31.1588 20.2266C31.0106 19.8825 30.8663 19.5712 30.7341 19.2984C30.2756 18.36 30 17.7928 30 15.9375C30 12.4003 30.8803 9.6975 30.8897 9.67031L31.2422 8.60531L30.1331 8.44688C30.0872 8.43938 26.6175 8.00906 24.375 12.0309V7.41375C24.375 5.445 23.7975 3.53813 22.7053 1.89938C22.3041 1.29656 21.6328 0.9375 20.9091 0.9375C19.7184 0.9375 18.75 1.90594 18.75 3.09656V7.83375C16.6294 5.31 14.0719 5.62969 13.9294 5.64937L12.9009 5.79656L13.1531 6.80437C13.1616 6.84094 14.0625 10.4784 14.0625 13.14C14.0625 15.6637 13.2422 18.1931 11.7581 20.295C7.58063 22.2844 0.9375 26.7047 0.9375 34.6875C0.9375 42.0553 8.47969 47.1553 15.5662 47.7487C17.2584 48.9637 19.3256 49.6875 21.5625 49.6875C22.2122 49.6875 22.8544 49.62 23.4862 49.5009C23.9456 55.215 29.5041 56.6803 32.0681 57.0459C32.7516 58.4241 35.1966 59.0625 37.5 59.0625C39.7509 59.0625 42.1387 58.4522 42.8841 57.1388C52.5853 56.685 59.0625 52.2394 59.0625 45.9375ZM28.7419 10.4531C28.4616 11.6803 28.125 13.6341 28.125 15.9375C28.125 17.6606 28.3566 18.5606 28.6903 19.3519C28.3997 19.2628 28.125 19.1831 27.8756 19.1147C27.09 18.9 26.3644 18.4763 25.7775 17.8894C25.3622 17.4741 25.0444 16.9912 24.81 16.4728C25.6538 12.1603 27.525 10.8412 28.7419 10.4531ZM18.75 11.7506V11.7553C18.75 13.635 18.1031 15.4791 16.9275 16.9491L16.8666 17.0259C16.2675 17.775 15.5212 18.4069 14.685 18.9159C15.4969 17.0925 15.9375 15.1153 15.9375 13.14C15.9375 11.2575 15.5456 9.01875 15.2606 7.63969C16.2778 7.94531 17.7816 8.90156 18.75 11.7506ZM2.8125 34.6875C2.8125 26.9803 9.8775 23.0044 14.0878 21.3197C15.7669 20.6484 17.2331 19.5684 18.3309 18.195L18.3919 18.1181C19.8319 16.32 20.625 14.0597 20.625 11.7563V3.09656C20.625 2.84438 21.0047 2.73 21.1453 2.93906C22.0312 4.26938 22.5 5.81625 22.5 7.41375V14.5031C22.5 16.2834 23.1928 17.9569 24.4519 19.215C25.2694 20.0325 26.2819 20.6231 27.3806 20.9231C30.6919 21.8306 38.4159 24.6394 40.0059 31.2534C38.4291 32.9006 36.18 34.2516 33.8559 35.6419C33.1247 36.0788 32.3794 36.5278 31.6397 36.9928C31.4091 35.9034 31.0172 34.8478 30.4519 33.8878L21.5625 18.7762L12.675 33.8878C11.7422 35.4694 11.25 37.2778 11.25 39.1153V39.375C11.25 41.6625 12.0075 43.7709 13.2731 45.4837C7.84687 44.1834 2.8125 40.1644 2.8125 34.6875ZM13.125 39.375V39.1153C13.125 37.6116 13.5281 36.1331 14.2903 34.8375L21.5625 22.4738L28.8347 34.8375C29.4253 35.8416 29.79 36.9703 29.9269 38.1253C26.6991 40.3847 23.9259 43.2066 23.4975 47.5641C22.8647 47.7131 22.2206 47.8125 21.5625 47.8125C16.9097 47.8125 13.125 44.0278 13.125 39.375ZM25.3125 48.75C25.3125 42.9338 29.9297 40.1738 34.8178 37.2497C38.595 34.9913 42.4688 32.6644 43.6744 28.8038C43.9659 29.2359 44.2594 29.6663 44.5491 30.0853C46.9575 33.5606 49.6875 37.4991 49.6875 44.0625C49.6875 48.5653 47.0541 52.3088 42.2663 54.6666C41.2022 53.8312 39.3075 53.4375 37.5 53.4375C35.3569 53.4375 33.09 53.9906 32.2341 55.1775C29.7262 54.8147 25.3125 53.5031 25.3125 48.75ZM37.5 57.1875C35.2988 57.1875 34.0144 56.5566 33.7734 56.25C34.0144 55.9434 35.2988 55.3125 37.5 55.3125C39.7012 55.3125 40.9856 55.9434 41.2266 56.25C40.9856 56.5566 39.7012 57.1875 37.5 57.1875ZM45.3713 55.0312C49.3416 52.335 51.5625 48.4641 51.5625 44.0625C51.5625 36.9131 48.6544 32.7178 46.0884 29.0147C45.3638 27.9703 44.6822 26.9756 44.0522 25.9106C43.9491 23.4759 42.8044 19.6153 42.3347 18.1247C42.9647 17.6522 44.2594 16.875 45.9375 16.875H46.875C46.875 25.6706 49.9781 30.1462 52.7147 34.0941C55.1147 37.5563 57.1875 40.545 57.1875 45.9375C57.1875 51.2334 51.6553 54.1678 45.3713 55.0312Z" fill="#4472C4"/>
<path d="M36.0788 41.1065L35.3428 39.3815C35.0109 39.5231 27.1875 42.9243 27.1875 48.75H29.0625C29.0625 44.1637 36.0094 41.1356 36.0788 41.1065Z" fill="#4472C4"/>
<path d="M45.9242 44.0081H47.7992C47.7992 36.2213 44.0051 33.0384 43.843 32.9062L42.658 34.3603C42.6917 34.3875 45.9242 37.1034 45.9242 44.0081Z" fill="#4472C4"/>
</svg>
