<svg width="60" height="60" viewBox="0 0 60 60" fill="none" xmlns="http://www.w3.org/2000/svg">
<g clip-path="url(#clip0)">
<path d="M47.4588 3.92737C46.0834 3.92737 44.7329 4.23119 43.4451 4.83224C40.2731 6.30896 38.2259 9.37496 37.7996 12.8084C35.9202 10.8517 34.8236 8.2162 34.8236 5.43235V0.0686035H25.1767V5.43235C25.1767 8.26048 24.1008 10.8606 22.2006 12.8159C21.7772 9.37967 19.7291 6.3099 16.5552 4.83224C15.2674 4.23119 13.9164 3.92737 12.541 3.92737C5.62612 3.92737 0 11.717 0 21.2918C0 30.8662 5.62612 38.6563 12.541 38.6563C13.9164 38.6563 15.2674 38.3525 16.5552 37.7514C19.7404 36.2676 21.7904 33.1814 22.2044 29.731C22.9463 31.4159 23.3424 33.2558 23.3424 35.1263V59.8795H29.1306V35.1273C29.1306 29.2331 26.4334 23.7073 21.862 20.1227C25.7052 18.2192 28.5917 14.9488 30.0001 11.018C31.4142 14.9709 34.3219 18.2517 38.1981 20.1514C33.6474 23.737 30.9648 29.2487 30.9648 35.1273V59.8795H36.753V35.1273C36.753 33.3232 37.127 31.5511 37.818 29.9161C38.282 33.2925 40.3174 36.2954 43.446 37.7524C44.7329 38.3525 46.0834 38.6563 47.4588 38.6563C54.3737 38.6563 59.9998 30.8662 59.9998 21.2918C59.9998 11.717 54.3751 3.92737 47.4588 3.92737ZM15.7398 36.0034C14.7087 36.4839 13.6329 36.7269 12.541 36.7269C6.6902 36.7269 1.92938 29.8021 1.92938 21.2918C1.92938 12.7811 6.6902 5.85676 12.541 5.85676C13.6329 5.85676 14.7097 6.09981 15.7398 6.58028C19.4403 8.30382 21.2425 12.7387 19.9307 16.8965C19.9076 16.97 19.8911 17.0511 19.869 17.125C18.6311 15.5536 16.7163 14.539 14.5651 14.539V16.4684C16.9862 16.4684 18.9782 18.2682 19.3179 20.598C19.3084 20.8297 19.2938 21.0591 19.2938 21.2918C19.2938 21.5241 19.3084 21.7549 19.3179 21.9852C18.9782 24.315 16.9862 26.1153 14.5651 26.1153V28.0447C16.7163 28.0447 18.6311 27.0296 19.869 25.4572C19.8911 25.5326 19.9076 25.6127 19.9307 25.6857C21.2416 29.8445 19.4403 34.2794 15.7398 36.0034ZM27.2003 35.1273V57.9501H25.2709V35.1273C25.2709 31.6401 24.0759 28.2383 21.9053 25.5529L21.8926 25.5632C21.8511 25.4111 21.8186 25.2585 21.7701 25.1059C21.4903 24.2175 21.3179 23.216 21.2543 22.1713C21.2562 22.1581 21.259 22.1454 21.26 22.1322C25.0057 25.3541 27.2003 30.0885 27.2003 35.1273ZM30.9648 5.43235H29.0354C29.0354 10.7659 26.1654 15.5626 21.6062 18.0897C21.6585 17.8834 21.7075 17.6742 21.7701 17.4773C21.9891 16.7835 22.13 16.0835 22.2091 15.385C25.2751 13.0321 27.1061 9.34293 27.1061 5.43235V1.99799H32.8942V5.43235C32.8942 9.35094 34.7242 13.0241 37.7907 15.3793C37.8698 16.0793 38.0107 16.7816 38.2306 17.4773C38.2923 17.6742 38.3427 17.8834 38.3946 18.0906C33.8316 15.5644 30.9648 10.7744 30.9648 5.43235ZM34.8236 35.1273V57.9501H32.8942V35.1273C32.8942 30.1281 35.053 25.4271 38.745 22.208C38.6795 23.2405 38.5067 24.2292 38.2297 25.1073C38.1652 25.3117 38.1171 25.5161 38.0658 25.7215C35.9772 28.381 34.8236 31.7094 34.8236 35.1273ZM47.4588 36.7269C46.3669 36.7269 45.2906 36.4839 44.26 36.0034C40.5595 34.2794 38.7573 29.8445 40.0696 25.6866C40.0927 25.6136 40.1092 25.5326 40.1313 25.4582C41.3687 27.0296 43.284 28.0447 45.4352 28.0447V26.1153C43.0136 26.1153 41.0216 24.315 40.6819 21.9852C40.6918 21.7539 40.706 21.5241 40.706 21.2918C40.706 21.0591 40.6918 20.8288 40.6819 20.598C41.0216 18.2682 43.0136 16.4684 45.4352 16.4684V14.539C43.284 14.539 41.3687 15.5536 40.1313 17.1259C40.1092 17.0511 40.0927 16.971 40.0696 16.8975C38.7573 12.7387 40.5585 8.30523 44.26 6.58122C45.2915 6.09981 46.3669 5.85676 47.4588 5.85676C53.3101 5.85676 58.0704 12.7811 58.0704 21.2918C58.0704 29.8021 53.311 36.7269 47.4588 36.7269Z" fill="#4472C4"/>
<path d="M52.1881 13.5743V11.645C49.9615 11.645 48.8743 11.2097 47.7235 10.7486C46.4517 10.2413 45.138 9.71558 42.5411 9.71558V11.645C44.7673 11.645 45.8549 12.0797 47.0057 12.5409C48.277 13.0487 49.5908 13.5743 52.1881 13.5743Z" fill="#4472C4"/>
<path d="M48.935 19.4308C47.7843 19.8919 46.6967 20.3272 44.4705 20.3272V22.2565C47.0674 22.2565 48.3811 21.7309 49.6529 21.2231C50.8037 20.7619 51.8908 20.3272 54.1174 20.3272V18.3978C51.5201 18.3978 50.2064 18.9234 48.935 19.4308Z" fill="#4472C4"/>
<path d="M42.5411 30.9388V32.8682C45.138 32.8682 46.4517 32.3425 47.7235 31.8347C48.8743 31.3736 49.9615 30.9388 52.1881 30.9388V29.0094C49.5908 29.0094 48.277 29.5351 47.0057 30.0424C45.8549 30.5035 44.7673 30.9388 42.5411 30.9388Z" fill="#4472C4"/>
<path d="M17.4592 11.645V9.71558C14.8619 9.71558 13.5481 10.2413 12.2768 10.7486C11.126 11.2097 10.0384 11.645 7.81226 11.645V13.5743C10.4091 13.5743 11.7228 13.0487 12.9947 12.5409C14.1454 12.0797 15.2326 11.645 17.4592 11.645Z" fill="#4472C4"/>
<path d="M15.5297 22.2565V20.3272C13.3031 20.3272 12.216 19.8919 11.0652 19.4308C9.7934 18.9234 8.47966 18.3978 5.88281 18.3978V20.3272C8.10895 20.3272 9.19659 20.7619 10.3473 21.2231C11.6187 21.7309 12.9324 22.2565 15.5297 22.2565Z" fill="#4472C4"/>
<path d="M7.81226 29.0094V30.9388C10.0384 30.9388 11.126 31.3736 12.2768 31.8347C13.5481 32.3425 14.8619 32.8682 17.4592 32.8682V30.9388C15.2326 30.9388 14.1454 30.5035 12.9947 30.0424C11.7228 29.5351 10.4091 29.0094 7.81226 29.0094Z" fill="#4472C4"/>
</g>
<defs>
<clipPath id="clip0">
<rect width="60" height="60" fill="white"/>
</clipPath>
</defs>
</svg>
