<svg width="48" height="58" viewBox="0 0 48 58" fill="none" xmlns="http://www.w3.org/2000/svg">
<path d="M36.1875 4.625H38.0625V6.5H36.1875V4.625Z" fill="#4472C4"/>
<path d="M32.4375 4.625H34.3125V6.5H32.4375V4.625Z" fill="#4472C4"/>
<path d="M39.9375 4.625H41.8125V6.5H39.9375V4.625Z" fill="#4472C4"/>
<path d="M34.3125 8.375H36.1875V10.25H34.3125V8.375Z" fill="#4472C4"/>
<path d="M38.0625 8.375H39.9375V10.25H38.0625V8.375Z" fill="#4472C4"/>
<path d="M6.1875 4.625H8.0625V6.5H6.1875V4.625Z" fill="#4472C4"/>
<path d="M9.9375 4.625H11.8125V6.5H9.9375V4.625Z" fill="#4472C4"/>
<path d="M13.6875 4.625H15.5625V6.5H13.6875V4.625Z" fill="#4472C4"/>
<path d="M8.0625 8.375H9.9375V10.25H8.0625V8.375Z" fill="#4472C4"/>
<path d="M11.8125 8.375H13.6875V10.25H11.8125V8.375Z" fill="#4472C4"/>
<path d="M0.562496 53.3178C0.539925 53.7917 0.615457 54.2651 0.78436 54.7084C0.953263 55.1517 1.2119 55.5553 1.54406 55.8941C1.89784 56.2763 2.32573 56.5826 2.80168 56.7942C3.27762 57.0059 3.79166 57.1184 4.3125 57.125H18.375C18.8956 57.1182 19.4094 57.0055 19.885 56.7937C20.3606 56.5819 20.7882 56.2755 21.1416 55.8931C21.4736 55.5543 21.7321 55.1506 21.901 54.7074C22.0699 54.2641 22.1455 53.7907 22.1231 53.3169L20.2481 23.3253C20.2034 21.8488 19.6182 20.44 18.6037 19.3662C19.0999 19.1422 19.5201 18.7786 19.8131 18.3199C20.1062 17.8611 20.2594 17.327 20.2542 16.7827C20.2489 16.2383 20.0853 15.7073 19.7835 15.2543C19.4816 14.8013 19.0544 14.446 18.5541 14.2316L20.2275 6.70343C20.2425 6.63666 20.25 6.56843 20.25 6.49999C20.2579 5.75911 20.1178 5.02411 19.8379 4.33808C19.558 3.65205 19.144 3.02881 18.6201 2.5049C18.0962 1.98099 17.4729 1.56695 16.7869 1.28707C16.1009 1.00718 15.3659 0.867087 14.625 0.874991H8.0625C7.32158 0.866959 6.58652 1.00697 5.90043 1.28681C5.21435 1.56665 4.59106 1.98068 4.06712 2.50462C3.54318 3.02855 3.12915 3.65185 2.84931 4.33793C2.56947 5.02401 2.42946 5.75908 2.4375 6.49999C2.43699 6.56845 2.44454 6.63673 2.46 6.70343L4.13343 14.2353C3.63504 14.4508 3.20991 14.8063 2.90961 15.2587C2.60932 15.711 2.44678 16.2409 2.44172 16.7838C2.43666 17.3268 2.58929 17.8595 2.88109 18.3174C3.1729 18.7753 3.59133 19.1387 4.08562 19.3634C3.06939 20.4341 2.48273 21.8414 2.4375 23.3169L0.562496 53.3178ZM8.0625 2.74999H14.625C15.6068 2.73873 16.553 3.11733 17.256 3.80277C17.959 4.4882 18.3614 5.42448 18.375 6.40624L16.6875 14H6L4.3125 6.40624C4.32633 5.42456 4.72885 4.48842 5.4318 3.80304C6.13475 3.11766 7.08078 2.73897 8.0625 2.74999ZM18.375 16.8125C18.375 17.0611 18.2762 17.2996 18.1004 17.4754C17.9246 17.6512 17.6861 17.75 17.4375 17.75H5.25C5.00136 17.75 4.7629 17.6512 4.58708 17.4754C4.41127 17.2996 4.3125 17.0611 4.3125 16.8125C4.3125 16.5639 4.41127 16.3254 4.58708 16.1496C4.7629 15.9738 5.00136 15.875 5.25 15.875H17.4375C17.6861 15.875 17.9246 15.9738 18.1004 16.1496C18.2762 16.3254 18.375 16.5639 18.375 16.8125ZM4.30687 23.4247C4.2946 22.9261 4.38303 22.4301 4.56686 21.9665C4.75069 21.5028 5.02615 21.081 5.37677 20.7263C5.72738 20.3716 6.14594 20.0912 6.60741 19.902C7.06888 19.7127 7.56378 19.6185 8.0625 19.625H14.625C15.1239 19.6197 15.6187 19.7149 16.0799 19.9052C16.5411 20.0954 16.9592 20.3767 17.3093 20.7321C17.6593 21.0876 17.9341 21.51 18.1172 21.9741C18.3003 22.4382 18.388 22.9344 18.375 23.4331L18.6619 28.0625H4.01718L4.30687 23.4247ZM18.7791 29.9375L20.25 53.4322C20.2553 53.6503 20.2158 53.8672 20.1339 54.0694C20.0519 54.2716 19.9294 54.4549 19.7737 54.6078C19.5953 54.8028 19.3796 54.9601 19.1394 55.0704C18.8991 55.1807 18.6392 55.2418 18.375 55.25H4.3125C4.04704 55.2426 3.78577 55.1819 3.54421 55.0716C3.30264 54.9613 3.0857 54.8036 2.90625 54.6078C2.7509 54.4549 2.62858 54.2718 2.54682 54.0697C2.46507 53.8677 2.42562 53.651 2.43093 53.4331L3.9 29.9375H18.7791Z" fill="#4472C4"/>
<path d="M25.875 53.3178C25.8524 53.7917 25.928 54.2651 26.0969 54.7084C26.2658 55.1517 26.5244 55.5553 26.8566 55.8941C27.2103 56.2763 27.6382 56.5826 28.1142 56.7942C28.5901 57.0059 29.1042 57.1184 29.625 57.125H43.6875C44.2081 57.1182 44.7219 57.0055 45.1975 56.7937C45.6732 56.5819 46.1007 56.2755 46.4541 55.8931C46.7861 55.5543 47.0446 55.1506 47.2135 54.7074C47.3824 54.2641 47.458 53.7907 47.4356 53.3169L45.5606 23.3253C45.5159 21.8488 44.9308 20.44 43.9163 19.3662C44.4124 19.1422 44.8326 18.7786 45.1256 18.3199C45.4187 17.8611 45.5719 17.327 45.5667 16.7827C45.5614 16.2383 45.3979 15.7073 45.096 15.2543C44.7941 14.8013 44.3669 14.446 43.8666 14.2316L45.54 6.70343C45.555 6.63666 45.5625 6.56843 45.5625 6.49999C45.5704 5.75911 45.4303 5.02411 45.1504 4.33808C44.8706 3.65205 44.4565 3.02881 43.9326 2.5049C43.4087 1.98099 42.7854 1.56695 42.0994 1.28707C41.4134 1.00718 40.6784 0.867087 39.9375 0.874991H33.375C32.6341 0.866959 31.899 1.00697 31.2129 1.28681C30.5269 1.56665 29.9036 1.98068 29.3796 2.50462C28.8557 3.02855 28.4417 3.65185 28.1618 4.33793C27.882 5.02401 27.742 5.75908 27.75 6.49999C27.7495 6.56845 27.757 6.63673 27.7725 6.70343L29.4459 14.2353C28.9475 14.4508 28.5224 14.8063 28.2221 15.2587C27.9218 15.711 27.7593 16.2409 27.7542 16.7838C27.7492 17.3268 27.9018 17.8595 28.1936 18.3174C28.4854 18.7753 28.9038 19.1387 29.3981 19.3634C28.3819 20.4341 27.7952 21.8414 27.75 23.3169L25.875 53.3178ZM33.375 2.74999H39.9375C40.9193 2.73873 41.8655 3.11733 42.5685 3.80277C43.2715 4.4882 43.6739 5.42448 43.6875 6.40624L42 14H31.3125L29.625 6.40624C29.6388 5.42456 30.0414 4.48842 30.7443 3.80304C31.4473 3.11766 32.3933 2.73897 33.375 2.74999ZM43.6875 16.8125C43.6875 17.0611 43.5887 17.2996 43.4129 17.4754C43.2371 17.6512 42.9986 17.75 42.75 17.75H30.5625C30.3139 17.75 30.0754 17.6512 29.8996 17.4754C29.7238 17.2996 29.625 17.0611 29.625 16.8125C29.625 16.5639 29.7238 16.3254 29.8996 16.1496C30.0754 15.9738 30.3139 15.875 30.5625 15.875H42.75C42.9986 15.875 43.2371 15.9738 43.4129 16.1496C43.5887 16.3254 43.6875 16.5639 43.6875 16.8125ZM29.6194 23.4247C29.6071 22.9261 29.6955 22.4301 29.8794 21.9665C30.0632 21.5028 30.3387 21.081 30.6893 20.7263C31.0399 20.3716 31.4584 20.0912 31.9199 19.902C32.3814 19.7127 32.8763 19.6185 33.375 19.625H39.9375C40.4364 19.6197 40.9312 19.7149 41.3924 19.9052C41.8536 20.0954 42.2717 20.3767 42.6218 20.7321C42.9718 21.0876 43.2466 21.51 43.4297 21.9741C43.6128 22.4382 43.7005 22.9344 43.6875 23.4331L44.2088 31.8125H29.0953L29.6194 23.4247ZM44.3259 33.6875L45.5625 53.4322C45.5678 53.6503 45.5283 53.8672 45.4464 54.0694C45.3645 54.2716 45.2419 54.4549 45.0863 54.6078C44.9078 54.8028 44.6921 54.9601 44.4519 55.0704C44.2116 55.1807 43.9517 55.2418 43.6875 55.25H29.625C29.3595 55.2426 29.0983 55.1819 28.8567 55.0716C28.6151 54.9613 28.3982 54.8036 28.2187 54.6078C28.0634 54.4549 27.9411 54.2718 27.8593 54.0697C27.7776 53.8677 27.7381 53.651 27.7434 53.4331L28.9781 33.6875H44.3259Z" fill="#4472C4"/>
<path d="M31.5 35.5625H33.375V39.3125H31.5V35.5625Z" fill="#4472C4"/>
<path d="M35.25 35.5625H37.125V39.3125H35.25V35.5625Z" fill="#4472C4"/>
<path d="M39 35.5625H40.875V39.3125H39V35.5625Z" fill="#4472C4"/>
<path d="M33.375 41.1875H35.25V44.9375H33.375V41.1875Z" fill="#4472C4"/>
<path d="M37.125 41.1875H39V44.9375H37.125V41.1875Z" fill="#4472C4"/>
<path d="M30.5625 46.8125H32.4375V50.5625H30.5625V46.8125Z" fill="#4472C4"/>
<path d="M34.3125 46.8125H36.1875V50.5625H34.3125V46.8125Z" fill="#4472C4"/>
<path d="M38.0625 46.8125H39.9375V50.5625H38.0625V46.8125Z" fill="#4472C4"/>
<path d="M41.8125 46.8125H43.6875V50.5625H41.8125V46.8125Z" fill="#4472C4"/>
<path d="M40.875 41.1875H42.75V44.9375H40.875V41.1875Z" fill="#4472C4"/>
<path d="M16.5 46.8125H18.375V53.375H16.5V46.8125Z" fill="#4472C4"/>
<path d="M16.5 43.0625H18.375V44.9375H16.5V43.0625Z" fill="#4472C4"/>
</svg>
