<svg width="60" height="44" viewBox="0 0 60 44" fill="none" xmlns="http://www.w3.org/2000/svg">
<path d="M18.75 7.05859H20.625V8.81641H18.75V7.05859Z" fill="#4472C4"/>
<path d="M24.375 13.5039C25.7549 13.5039 27.0925 13.3366 28.3507 13.0063L27.9046 11.306C26.7919 11.598 25.6043 11.746 24.3749 11.746C19.7695 11.746 15.8788 9.57249 15.8788 6.99987C15.8788 4.42726 19.7695 2.25378 24.3749 2.25378C28.9802 2.25378 32.871 4.42726 32.871 6.99987C32.871 8.40401 31.6628 9.78694 29.6388 10.6989L30.3611 12.3016C31.6179 11.7352 32.6681 10.9826 33.3981 10.1251C34.2033 9.17944 34.6289 8.09874 34.6289 6.99987C34.6289 3.35277 30.1248 0.495972 24.375 0.495972C18.6252 0.495972 14.1211 3.35277 14.1211 6.99987C14.1211 10.647 18.6252 13.5039 24.375 13.5039Z" fill="#4472C4"/>
<path d="M29.0039 4.1875H27.2461C27.2461 4.44355 26.2589 5.18359 24.375 5.18359C22.4911 5.18359 21.5039 4.44355 21.5039 4.1875H19.7461C19.7461 5.75746 21.7361 6.94141 24.375 6.94141C27.0139 6.94141 29.0039 5.75746 29.0039 4.1875Z" fill="#4472C4"/>
<path d="M31.875 22.0586H33.75V23.8164H31.875V22.0586Z" fill="#4472C4"/>
<path d="M37.5 15.4961C31.7502 15.4961 27.2461 18.3529 27.2461 22C27.2461 25.6471 31.7502 28.5039 37.5 28.5039C43.2498 28.5039 47.7539 25.6471 47.7539 22C47.7539 18.3529 43.2498 15.4961 37.5 15.4961ZM37.5 26.7461C32.8946 26.7461 29.0039 24.5726 29.0039 22C29.0039 19.4274 32.8946 17.2539 37.5 17.2539C42.1054 17.2539 45.9961 19.4274 45.9961 22C45.9961 24.5726 42.1054 26.7461 37.5 26.7461Z" fill="#4472C4"/>
<path d="M37.5 20.1836C35.6161 20.1836 34.6289 19.4436 34.6289 19.1875H32.8711C32.8711 20.7575 34.8611 21.9414 37.5 21.9414C40.1389 21.9414 42.1289 20.7575 42.1289 19.1875H40.3711C40.3711 19.4436 39.3839 20.1836 37.5 20.1836Z" fill="#4472C4"/>
<path d="M18.75 37.0586H20.625V38.8164H18.75V37.0586Z" fill="#4472C4"/>
<path d="M24.375 30.4961C22.4231 30.4961 20.5282 30.8378 18.8952 31.4842L19.5422 33.1186C20.9713 32.5529 22.6424 32.2539 24.375 32.2539C28.9804 32.2539 32.8711 34.4274 32.8711 37C32.8711 39.5726 28.9804 41.7461 24.375 41.7461C19.7696 41.7461 15.8789 39.5726 15.8789 37C15.8789 35.9161 16.5884 34.8436 17.8766 33.98L16.8977 32.5199C15.1072 33.7203 14.1211 35.3113 14.1211 37C14.1211 40.6471 18.6252 43.5039 24.375 43.5039C30.1248 43.5039 34.6289 40.6471 34.6289 37C34.6289 33.3529 30.1248 30.4961 24.375 30.4961Z" fill="#4472C4"/>
<path d="M29.0039 34.1875H27.2461C27.2461 34.4436 26.2589 35.1836 24.375 35.1836C22.4911 35.1836 21.5039 34.4436 21.5039 34.1875H19.7461C19.7461 35.7575 21.7361 36.9414 24.375 36.9414C27.0139 36.9414 29.0039 35.7575 29.0039 34.1875Z" fill="#4472C4"/>
<path d="M60 11.6289V9.87109H57.0442C56.9237 9.24707 56.6784 8.66711 56.3339 8.15898L58.4248 6.06812L57.1818 4.82523L55.0909 6.91598C54.5829 6.57156 54.0029 6.32629 53.3789 6.20582V3.25H51.6211V6.20582C50.9971 6.32629 50.4171 6.57156 49.9091 6.91598L47.8182 4.82523L46.5752 6.06812L48.6661 8.15898C48.3217 8.66699 48.0763 9.24707 47.9558 9.87109H45V11.6289H47.9558C48.0763 12.2529 48.3216 12.8329 48.6661 13.341L46.5752 15.4319L47.8182 16.6748L49.9091 14.5839C50.4171 14.9283 50.9971 15.1736 51.6211 15.2941V18.25H53.3789V15.2942C54.0029 15.1737 54.5829 14.9284 55.0909 14.584L57.1818 16.6749L58.4248 15.432L56.3339 13.3411C56.6783 12.8331 56.9237 12.253 57.0442 11.629H60V11.6289ZM52.5 13.6211C50.9168 13.6211 49.6289 12.3331 49.6289 10.75C49.6289 9.16691 50.9168 7.87891 52.5 7.87891C54.0832 7.87891 55.3711 9.16691 55.3711 10.75C55.3711 12.3331 54.0832 13.6211 52.5 13.6211Z" fill="#4472C4"/>
<path d="M51.5625 9.87109H53.4375V11.6289H51.5625V9.87109Z" fill="#4472C4"/>
<path d="M12.0442 28.5039H15V26.7461H12.0442C11.9237 26.1221 11.6784 25.542 11.3339 25.034L13.4248 22.9431L12.1819 21.7002L10.091 23.7911C9.58301 23.4467 9.00293 23.2013 8.37891 23.0808V20.125H6.62109V23.0808C5.99707 23.2013 5.41699 23.4467 4.90898 23.7911L2.81813 21.7002L1.57523 22.9431L3.66609 25.034C3.32168 25.542 3.07629 26.1221 2.95594 26.7461H0V28.5039H2.95582C3.07629 29.1279 3.32156 29.708 3.66598 30.216L1.57512 32.3069L2.81801 33.5498L4.90887 31.4589C5.41687 31.8033 5.99695 32.0487 6.62098 32.1692V35.125H8.37879V32.1692C9.00281 32.0487 9.58289 31.8033 10.0909 31.4589L12.1818 33.5498L13.4246 32.3069L11.3339 30.216C11.6783 29.708 11.9237 29.1279 12.0442 28.5039ZM7.5 30.4961C5.91691 30.4961 4.62891 29.2081 4.62891 27.625C4.62891 26.0419 5.91691 24.7539 7.5 24.7539C9.08309 24.7539 10.3711 26.0419 10.3711 27.625C10.3711 29.2081 9.08309 30.4961 7.5 30.4961Z" fill="#4472C4"/>
<path d="M6.5625 26.7461H8.4375V28.5039H6.5625V26.7461Z" fill="#4472C4"/>
<path d="M25.3125 21.0039V19.2461H23.2343C23.1942 19.1275 23.1465 19.0124 23.0913 18.9017L24.5611 17.4319L23.3182 16.189L21.8484 17.6588C21.7377 17.6036 21.6226 17.5559 21.504 17.5158V15.4375H19.7462V17.5157C19.6276 17.5558 19.5125 17.6035 19.4018 17.6587L17.932 16.1889L16.6891 17.4318L18.1589 18.9016C18.1037 19.0123 18.056 19.1274 18.0159 19.246H15.9375V21.0038H18.0157C18.0558 21.1224 18.1035 21.2375 18.1587 21.3482L16.6889 22.818L17.9318 24.0609L19.4016 22.5911C19.5123 22.6463 19.6274 22.694 19.746 22.7341V24.8125H21.5038V22.7343C21.6224 22.6942 21.7375 22.6465 21.8482 22.5913L23.318 24.0611L24.5609 22.8182L23.0911 21.3484C23.1463 21.2377 23.194 21.1226 23.2341 21.004H25.3125V21.0039ZM20.625 21.1211C20.0757 21.1211 19.6289 20.6743 19.6289 20.125C19.6289 19.5757 20.0757 19.1289 20.625 19.1289C21.1743 19.1289 21.6211 19.5757 21.6211 20.125C21.6211 20.6743 21.1743 21.1211 20.625 21.1211Z" fill="#4472C4"/>
<path d="M43.7163 33.9017L45.1861 32.4319L43.9431 31.189L42.4733 32.6588C42.3626 32.6036 42.2475 32.5559 42.1289 32.5158V30.4375H40.3711V32.5157C40.2525 32.5558 40.1374 32.6035 40.0267 32.6587L38.5569 31.1889L37.3139 32.4318L38.7837 33.9016C38.7285 34.0123 38.6808 34.1274 38.6407 34.246H36.5625V36.0038H38.6407C38.6808 36.1224 38.7285 36.2375 38.7837 36.3482L37.3139 37.818L38.5569 39.0609L40.0267 37.5911C40.1374 37.6463 40.2525 37.694 40.3711 37.7341V39.8125H42.1289V37.7343C42.2475 37.6942 42.3626 37.6465 42.4733 37.5913L43.9431 39.0611L45.1861 37.8182L43.7163 36.3484C43.7715 36.2377 43.8192 36.1226 43.8593 36.004H45.9375V34.2462H43.8593C43.8192 34.1275 43.7715 34.0124 43.7163 33.9017ZM41.25 36.1211C40.7009 36.1211 40.2539 35.6743 40.2539 35.125C40.2539 34.5757 40.7009 34.1289 41.25 34.1289C41.7991 34.1289 42.2461 34.5757 42.2461 35.125C42.2461 35.6743 41.7991 36.1211 41.25 36.1211Z" fill="#4472C4"/>
</svg>
