<svg width="60" height="60" viewBox="0 0 60 60" fill="none" xmlns="http://www.w3.org/2000/svg">
<g clip-path="url(#clip0)">
<path d="M58.6878 50.9628C53.6827 50.8258 49.5787 49.6519 46.2172 47.8877C52.0811 44.9156 56.0252 40.7976 58.3558 37.7537C59.3228 36.4905 57.6816 34.888 56.4405 35.8788C51.0689 40.1654 45.1788 42.2629 38.9267 42.1208C37.0732 40.0156 35.6617 37.7667 34.5945 35.6519C34.376 35.2185 33.847 35.0444 33.4139 35.2632C32.9805 35.4819 32.8065 36.0106 33.0253 36.444C37.5872 45.4842 45.3273 51.212 55.2649 52.4648C43.3584 53.8534 31.7632 49.2708 23.0406 37.6592C21.0408 34.9989 20.5499 34.0671 20.174 33.2076C17.2703 26.5664 21.3473 20.6813 26.713 24.4688C30.0946 26.8576 30.6319 30.487 31.3615 32.5577C31.523 33.0155 32.025 33.2562 32.4826 33.0946C32.9404 32.9334 33.1809 32.4315 33.0196 31.9735C32.7569 31.228 32.5959 30.6688 32.5216 30.395C32.497 30.2927 32.4701 30.1903 32.4429 30.0888C31.7401 27.4404 30.2033 24.9478 28.1136 23.3195C28.1071 21.5989 27.3248 19.8977 25.8623 18.7788C24.5783 17.7981 23.6929 16.4721 23.3691 15.045C22.6699 11.9647 23.0626 9.2884 24.536 7.09067C25.2015 6.09856 23.8595 4.97333 23.0032 5.82024C21.205 7.59879 18.2295 11.5673 18.5061 18.1629C18.532 18.7802 18.2682 19.3715 18.0008 19.639C16.3 21.6547 16.2 24.5325 17.7028 26.6479C17.0714 29.454 17.7382 32.5109 19.094 34.9904C17.8025 34.5985 16.496 34.4205 15.2465 34.4693C14.1128 33.1362 12.4057 32.3632 10.5978 32.4509C8.98338 32.5297 7.4521 32.0871 6.28421 31.2052C3.76327 29.3019 2.33746 27.0033 2.04636 24.373C1.91394 23.1804 0.164102 23.1958 0.0555864 24.3911C-0.17164 26.9103 0.113594 31.8624 4.57831 36.7243C5.23116 37.4355 5.14398 38.2958 5.14398 38.1786C5.14398 40.816 6.92335 43.0799 9.43619 43.7276C10.571 45.9095 12.5549 47.6287 14.7784 48.724C16.7428 49.6918 20.6975 50.5675 22.7647 50.9308C23.2433 51.0148 23.6986 50.6952 23.7826 50.2171C23.8666 49.739 23.5472 49.2832 23.0689 49.1992C21.318 48.8916 17.3912 48.0515 15.5554 47.1468C9.06764 43.9511 8.35866 36.8326 14.9226 36.2503C16.9288 36.0755 19.061 36.6389 20.8363 37.6237C22.9896 40.6496 25.4475 43.444 28.2441 45.8531C21.3127 45.1429 17.929 43.5494 16.2905 42.2667C15.9084 41.9675 15.3557 42.0347 15.0566 42.417C14.7573 42.7992 14.8247 43.3517 15.2068 43.651C17.2336 45.2376 21.5708 47.2478 30.7246 47.8192C31.6431 48.487 32.5938 49.1147 33.579 49.6969C31.4739 49.8888 29.3011 49.896 27.0899 49.7171C26.6055 49.6789 26.1821 50.0384 26.1429 50.5224C26.1037 51.0062 26.4642 51.4304 26.9482 51.4695C30.0358 51.7192 33.1611 51.6314 36.2563 51.1272C43.4259 54.557 51.4321 55.2816 58.9426 53.6305C60.4954 53.2894 60.277 51.0062 58.6878 50.9628ZM40.6457 43.8647C45.6302 43.6628 50.3779 42.1062 54.8155 39.2204C52.3969 41.8168 48.9774 44.6922 44.4148 46.8102C43.0816 45.9572 41.8204 44.9713 40.6457 43.8647ZM8.65209 41.476C7.58499 40.7562 6.90202 39.5364 6.90202 38.1683C6.90319 37.1943 6.5378 36.2594 5.873 35.5355C4.08718 33.5907 3.04539 31.6402 2.45699 29.878C3.20195 30.8648 4.12796 31.7805 5.22448 32.6086C6.72038 33.7379 8.65913 34.3057 10.6827 34.2071C11.5287 34.166 12.3362 34.396 13.0099 34.8243C9.80967 35.7618 8.11913 38.4427 8.65209 41.476ZM18.555 24.4216C18.2037 23.1833 18.4683 21.8106 19.3507 20.7649C19.9797 20.0212 20.3034 19.071 20.2621 18.0892C20.1516 15.4509 20.6132 13.2884 21.3 11.5621C21.2331 12.797 21.3503 14.0939 21.6543 15.4341C22.069 17.2617 23.1844 18.9458 24.7944 20.1757C25.458 20.683 25.9325 21.3738 26.1752 22.1487C23.0884 20.7847 20.0861 21.7906 18.555 24.4216Z" fill="#4472C4"/>
<path d="M33.1356 42.3026C25.1513 35.2172 23.9549 29.4487 23.9376 29.36C23.8491 28.884 23.3912 28.569 22.9152 28.6562C22.4378 28.7435 22.1214 29.2013 22.2087 29.679C22.2557 29.9362 23.4587 36.0656 31.9685 43.6176C32.136 43.7661 32.3441 43.8391 32.5518 43.8391C32.7943 43.8391 33.0359 43.7392 33.2094 43.5435C33.5318 43.1805 33.4986 42.6249 33.1356 42.3026Z" fill="#4472C4"/>
</g>
<defs>
<clipPath id="clip0">
<rect width="60" height="60" fill="white"/>
</clipPath>
</defs>
</svg>
