<svg width="26" height="60" viewBox="0 0 26 60" fill="none" xmlns="http://www.w3.org/2000/svg">
<path d="M12.0103 31.4518C12.0401 31.4518 12.0698 31.4504 12.0996 31.4472C12.5226 31.4042 12.854 31.065 12.8869 30.6416L13.4477 23.4845L15.5694 23.5719C15.8532 23.5843 16.1224 23.4589 16.2968 23.2364C16.4712 23.0144 16.5284 22.7219 16.4501 22.4504L15.8491 20.3653C15.715 19.8989 15.2279 19.6292 14.7615 19.7643C14.295 19.8984 14.0258 20.3855 14.1604 20.8519L14.4236 21.7656L12.6741 21.6933C12.2003 21.6736 11.7984 22.0316 11.7613 22.5031L11.5132 25.6721L8.59039 15.5318C7.8122 12.8301 5.99489 10.4195 3.3353 8.55966C2.607 8.05063 2.15931 7.23399 2.10621 6.31938C2.04624 5.2821 2.6157 4.23749 3.52206 3.72022C4.29888 3.27665 5.17504 3.20478 5.98848 3.51651C6.76713 3.81497 7.62543 3.56778 8.12576 2.90083C8.64853 2.2032 9.42855 1.79854 10.3221 1.76054C11.3658 1.71614 12.4026 2.2975 12.9043 3.20752C13.3461 4.00998 13.4015 4.93969 13.0558 5.75863C11.7943 8.74826 11.5388 11.7562 12.3175 14.4575L13.0774 17.0955C13.2119 17.5615 13.6985 17.8311 14.1655 17.6966C14.6319 17.562 14.9011 17.0749 14.7665 16.6085L14.0062 13.9709C13.3406 11.6601 13.5717 9.05679 14.6754 6.4416C15.2316 5.12371 15.1469 3.63599 14.4438 2.35929C13.6148 0.855093 11.9664 -0.0691263 10.247 0.00411544C8.81698 0.0649977 7.56409 0.719138 6.71952 1.84614C6.69206 1.88277 6.66093 1.89192 6.6179 1.87544C5.30275 1.37099 3.89377 1.4836 2.65095 2.19313C1.15498 3.04685 0.252279 4.70623 0.351613 6.42055C0.435383 7.87577 1.1559 9.18039 2.32822 10.0002C4.65411 11.6267 6.23567 13.7076 6.90125 16.018L11.1662 30.816C11.2756 31.1955 11.6226 31.4518 12.0103 31.4518Z" fill="#4472C4"/>
<path d="M24.5566 52.4488C22.7718 50.2415 21.8284 47.8044 21.8284 45.3998V23.4236C21.8284 22.9988 21.5244 22.6349 21.1065 22.5589C20.6885 22.4834 20.2761 22.7173 20.1269 23.1151L17.606 29.8373L15.5914 29.1658C15.3236 29.0765 15.0288 29.1214 14.7994 29.2866C14.5701 29.4519 14.4346 29.7169 14.4346 29.9993V40.3324C14.4346 40.8176 14.8278 41.2113 15.3135 41.2113C15.7987 41.2113 16.1924 40.8176 16.1924 40.3324V31.2188L17.8536 31.7727C18.3018 31.9219 18.7884 31.6899 18.9545 31.2472L20.0706 28.2708V45.3998C20.0706 48.2109 21.149 51.0307 23.1893 53.5539C23.7482 54.2451 23.9524 55.1538 23.75 56.0468C23.5202 57.0603 22.6844 57.9067 21.6695 58.1525C20.8007 58.3636 19.9392 58.1905 19.2434 57.665C18.5783 57.1624 17.6843 57.1624 17.0196 57.665C16.3238 58.1905 15.4623 58.3636 14.5935 58.1525C13.5786 57.9067 12.7427 57.0603 12.5129 56.0468C12.3101 55.1538 12.5143 54.2451 13.0732 53.5539C15.1139 51.0307 16.1924 48.2109 16.1924 45.3998V44.0901C16.1924 43.6045 15.7987 43.2112 15.3135 43.2112C14.8278 43.2112 14.4346 43.6045 14.4346 44.0901V45.3998C14.4346 47.8039 13.4912 50.2415 11.7064 52.4488C10.8073 53.5612 10.4764 55.0141 10.7986 56.4359C11.1781 58.1104 12.5052 59.4549 14.1787 59.8609C15.5694 60.1983 16.9546 59.9168 18.0788 59.0676C18.115 59.0401 18.1475 59.0401 18.1841 59.0676C18.998 59.6828 19.9493 60.0001 20.9403 60.0001C21.3175 60.0001 21.7006 59.9538 22.0838 59.8609C23.7578 59.4549 25.0844 58.1104 25.4644 56.4359C25.7866 55.0141 25.4557 53.5612 24.5566 52.4488Z" fill="#4472C4"/>
<path d="M18.285 19.1203C18.4388 19.4279 18.7491 19.606 19.0719 19.606C19.2037 19.606 19.3378 19.5763 19.4642 19.5131C19.8981 19.2961 20.0744 18.7683 19.8574 18.3339L18.9176 16.4552C18.7006 16.0213 18.1728 15.845 17.7389 16.0625C17.3044 16.2794 17.1287 16.8072 17.3456 17.2412L18.285 19.1203Z" fill="#4472C4"/>
<path d="M22.8281 20.5452C23.0533 20.5452 23.2781 20.4596 23.4498 20.2879L24.3891 19.3486C24.7324 19.0053 24.7324 18.4486 24.3891 18.1058C24.0458 17.7624 23.4896 17.7624 23.1463 18.1058L22.2069 19.0451C21.8636 19.3884 21.8636 19.9446 22.2069 20.2879C22.3786 20.4596 22.6033 20.5452 22.8281 20.5452Z" fill="#4472C4"/>
<path d="M12.1774 35.3176C12.5207 34.9743 12.5207 34.4181 12.1774 34.0748C11.8341 33.7314 11.2775 33.7314 10.9346 34.0748L9.99525 35.0141C9.65193 35.3574 9.65193 35.914 9.99525 36.2569C10.1669 36.4286 10.3917 36.5146 10.6164 36.5146C10.8417 36.5146 11.0664 36.4286 11.2381 36.2569L12.1774 35.3176Z" fill="#4472C4"/>
</svg>
