<svg width="60" height="60" viewBox="0 0 60 60" fill="none" xmlns="http://www.w3.org/2000/svg">
<path d="M56.4844 31.7578C56.4844 25.7268 54.5093 20.0455 50.7727 15.3281C47.148 10.7523 42.0497 7.46016 36.4166 6.05824C35.226 5.76199 34.3945 4.70777 34.3945 3.49477V0.878906C34.3945 0.523359 34.1804 0.202969 33.852 0.0669141C33.5237 -0.0689063 33.1455 0.00597658 32.8942 0.257461L31.7578 1.39383L30.6217 0.257695C30.6012 0.237187 30.5795 0.217734 30.557 0.199219C30.5473 0.191133 30.5368 0.184219 30.5269 0.176719C30.514 0.166992 30.5013 0.157031 30.488 0.148125C30.4758 0.140039 30.4632 0.133008 30.4508 0.125508C30.4386 0.118242 30.4267 0.110625 30.4141 0.103828C30.4015 0.0970313 30.3885 0.0912891 30.3756 0.0851953C30.3625 0.0789844 30.3497 0.0725391 30.3362 0.0669141C30.3237 0.0617578 30.3109 0.0575391 30.2982 0.0529687C30.2839 0.0478125 30.2698 0.0423047 30.255 0.0378516C30.2425 0.0341016 30.2297 0.0312891 30.2169 0.028125C30.2018 0.0242578 30.1869 0.0200391 30.1716 0.0169922C30.1573 0.0141797 30.1428 0.0125391 30.1286 0.0104297C30.1145 0.00832031 30.1008 0.00574219 30.0865 0.00433594C30.0612 0.001875 30.0359 0.000820313 30.0105 0.00046875C30.0069 0.00046875 30.0035 0 30 0C29.9965 0 29.9931 0.00046875 29.9896 0.000585937C29.9643 0.0009375 29.9388 0.00199219 29.9136 0.00445312C29.8993 0.00585938 29.8855 0.0084375 29.8716 0.0105469C29.8573 0.0126563 29.8429 0.0142969 29.8286 0.0171094C29.8132 0.0201562 29.7982 0.024375 29.7831 0.0282422C29.7704 0.0314062 29.7577 0.0342188 29.7451 0.0379688C29.7305 0.0424219 29.7163 0.0479297 29.7019 0.0530859C29.6892 0.0576563 29.6763 0.061875 29.6639 0.0670312C29.6505 0.0725391 29.6377 0.0791016 29.6245 0.0853125C29.6116 0.0914062 29.5986 0.0971484 29.586 0.103945C29.5734 0.110742 29.5615 0.118359 29.5492 0.125625C29.5368 0.133008 29.5242 0.140039 29.5121 0.148125C29.4987 0.157148 29.486 0.167109 29.473 0.176836C29.463 0.184336 29.4527 0.19125 29.443 0.199219C29.4205 0.217617 29.3989 0.23707 29.3783 0.257695L28.2422 1.39383L27.1058 0.257461C26.8545 0.00597658 26.4763 -0.0689063 26.148 0.0669141C25.8196 0.202969 25.6055 0.523477 25.6055 0.878906V3.49477C25.6055 4.70789 24.774 5.76199 23.5835 6.05824C17.9503 7.46016 12.852 10.7523 9.22734 15.3281C5.4907 20.0455 3.51562 25.7268 3.51562 31.7578C3.51562 38.8321 6.27047 45.4829 11.2727 50.4851C15.1845 54.3968 20.1043 56.934 25.4464 57.8544L25.3276 58.7573C25.2642 59.2386 25.6031 59.6802 26.0843 59.7435C26.5658 59.8058 27.007 59.468 27.0704 58.9868L27.188 58.0939C27.8277 58.1611 28.4725 58.2052 29.1212 58.2261V59.121C29.1212 59.6064 29.5147 59.9999 30.0001 59.9999C30.4855 59.9999 30.879 59.6064 30.879 59.121V58.2261C31.5278 58.2052 32.1725 58.1611 32.8123 58.0939L32.9298 58.9867C32.9932 59.4678 33.4342 59.8063 33.9159 59.7434C34.3971 59.68 34.736 59.2385 34.6726 58.7572L34.5538 57.8544C39.8959 56.934 44.8158 54.3967 48.7275 50.4851C53.7295 45.4829 56.4844 38.8321 56.4844 31.7578ZM29.1211 38.8502C25.5928 38.4155 22.8516 35.4018 22.8516 31.7578C22.8516 28.1139 25.5928 25.1002 29.1211 24.6654V38.8502ZM29.1211 22.8953C24.6212 23.3382 21.0938 27.1434 21.0938 31.7578C21.0938 36.3722 24.6212 40.1774 29.1211 40.6204V42.3854C23.6505 41.937 19.3359 37.342 19.3359 31.7578C19.3359 26.1736 23.6505 21.5787 29.1211 21.1302V22.8953ZM29.1211 19.3675C22.6802 19.8199 17.5781 25.2039 17.5781 31.7578C17.5781 38.3118 22.6802 43.6957 29.1211 44.1482V45.9094C21.7103 45.454 15.8203 39.2812 15.8203 31.7578C15.8203 24.2344 21.7103 18.0616 29.1211 17.6061V19.3675ZM29.1211 15.8449C20.7403 16.3027 14.0625 23.2648 14.0625 31.7578C14.0625 40.2509 20.7403 47.213 29.1211 47.6707V49.4312C19.7706 48.9716 12.3047 41.2204 12.3047 31.7578C12.3047 22.2953 19.7706 14.544 29.1211 14.0844V15.8449ZM29.1211 12.3254C18.801 12.7867 10.5469 21.3259 10.5469 31.7578C10.5469 42.1897 18.801 50.7289 29.1211 51.1902V52.9492C17.8315 52.4865 8.78906 43.159 8.78906 31.7578C8.78906 20.3566 17.8315 11.0291 29.1211 10.5664V12.3254ZM29.1211 8.80758C16.862 9.27129 7.03125 19.3873 7.03125 31.7578C7.03125 44.1284 16.862 54.2443 29.1211 54.708V56.467C15.8925 56.0024 5.27344 45.0977 5.27344 31.7578C5.27344 20.3759 12.9773 10.5093 24.0081 7.76402C25.9835 7.27242 27.3633 5.51684 27.3633 3.49477V3.00082L27.6207 3.25828C27.964 3.60152 28.5205 3.60152 28.8636 3.25828L29.1211 3.00082V8.80758ZM40.3195 54.2251C41.4142 53.292 42.447 52.206 43.4005 50.9726C46.9475 46.3846 49.0808 40.2002 49.4075 33.5589C49.4314 33.0741 49.0577 32.6617 48.5729 32.6379C48.087 32.6134 47.6757 32.9877 47.652 33.4725C47.0373 45.9661 39.7493 55.8386 30.8789 56.4538V3.0007L31.1364 3.25816C31.4796 3.60141 32.0361 3.60141 32.3793 3.25816L32.6367 3.0007V3.49465C32.6367 5.49234 33.9839 7.22918 35.9214 7.7448C39.0035 8.96133 41.8528 11.7683 43.9477 15.6546C46.1442 19.7296 47.4271 24.7032 47.6578 30.0379C47.6782 30.5099 48.0673 30.8788 48.5353 30.8788C48.5481 30.8788 48.561 30.8786 48.574 30.878C49.0589 30.857 49.4351 30.4468 49.4141 29.9619C49.0683 21.9639 46.4397 14.8785 42.4317 10.3683C49.9057 14.7008 54.7266 22.7548 54.7266 31.7578C54.7266 41.7105 48.8152 50.3074 40.3195 54.2251Z" fill="#4472C4"/>
</svg>
