<svg width="60" height="56" viewBox="0 0 60 56" fill="none" xmlns="http://www.w3.org/2000/svg">
<path d="M40.1375 33.478C35.0669 33.478 32.0218 34.6156 29.2764 37.5352C28.8361 38.0033 28.6046 38.6149 28.6243 39.2571C28.6441 39.8994 28.9128 40.4956 29.381 40.9358C30.3472 41.8444 31.8729 41.7977 32.7817 40.8312C34.3317 39.1827 35.9629 38.2894 40.1375 38.2894C43.3579 38.2894 45.4841 38.6945 47.4933 40.8312C47.9462 41.3127 48.5851 41.5889 49.2461 41.5889C49.8609 41.5889 50.4461 41.357 50.8939 40.9358C51.8603 40.0272 51.9073 38.5016 50.9985 37.5351C48.253 34.6154 45.2078 33.478 40.1375 33.478ZM49.6897 39.6554C49.5692 39.7688 49.4116 39.8312 49.2461 39.8312C49.0653 39.8312 48.8975 39.7587 48.7738 39.6271C46.3498 37.0494 43.6722 36.5316 40.1374 36.5316C35.3694 36.5316 33.2979 37.716 31.501 39.6271C31.256 39.8876 30.8451 39.9 30.5849 39.6552C30.4588 39.5366 30.3864 39.3761 30.3811 39.2031C30.3758 39.03 30.4382 38.8652 30.5567 38.7391C32.9584 36.1852 35.555 35.2355 40.1374 35.2355C44.7196 35.2355 47.3163 36.1851 49.7179 38.739C49.9627 38.9997 49.9502 39.4105 49.6897 39.6554Z" fill="#4472C4"/>
<path d="M57.5148 30.97C54.6418 28.1482 51.4183 26.6559 48.1701 25.8802L46.5065 18.2972C50.0022 19.4257 53.8577 18.082 55.8851 14.9437C57.5125 12.4245 57.5987 9.19257 56.1104 6.5091C55.8748 6.08453 55.3398 5.93125 54.9156 6.1668C54.4912 6.40223 54.3379 6.93719 54.5733 7.36152C55.7465 9.47663 55.6836 12.0164 54.4088 13.9896C52.7166 16.6092 49.403 17.637 46.5308 16.4332C46.0542 16.2337 45.511 16.3157 45.1134 16.6474C44.7127 16.9815 44.5333 17.5051 44.6449 18.0136L46.2885 25.5059C44.1933 25.1694 42.1139 25.0821 40.1375 25.0821C39.3619 25.0821 38.5703 25.0963 37.7683 25.1327C37.7122 25.0021 37.6542 24.8735 37.5929 24.7495C36.0752 21.6803 34.0022 19.4356 31.687 17.7247C32.7857 16.1878 34.2996 15.1605 37.8635 14.3786C41.0091 13.6885 43.1726 13.6285 45.5933 15.2851C46.1385 15.6584 46.8216 15.7913 47.4677 15.6496C48.068 15.5179 48.59 15.166 48.9372 14.6584C49.6865 13.5637 49.4052 12.0637 48.3105 11.3142C45.003 9.05078 41.7849 8.5921 36.8323 9.67866C32.229 10.6887 29.5482 12.2826 27.5417 15.263C26.0687 14.5569 24.573 13.9797 23.1193 13.4733C22.2405 13.1671 21.3337 12.8718 20.402 12.6058C20.5187 12.3671 20.6483 12.1353 20.793 11.9137C22.8703 8.73226 26.2313 5.20856 35.4099 3.19481C40.4361 2.09208 46.3342 1.41696 51.9688 4.77039C52.3861 5.0186 52.9252 4.88172 53.1736 4.46465C53.4218 4.04746 53.285 3.50817 52.8679 3.25985C46.7075 -0.406238 40.3954 0.302042 35.0333 1.47849C29.5354 2.68469 23.3693 4.75363 19.3213 10.9531C19.0719 11.3348 18.8548 11.7378 18.6716 12.1574C14.4063 11.1694 9.68603 10.997 4.77236 13.3173C2.77784 14.2593 1.21069 16.0044 0.473232 18.1053C-0.259189 20.1913 -0.138251 22.4138 0.813895 24.3629C2.4537 27.7201 6.12189 29.5126 9.72704 28.8081L7.00689 36.6172C6.42084 38.2999 7.31298 40.146 8.99579 40.7321L13.7081 42.3734C13.8038 42.4068 13.9013 42.4225 13.9972 42.4225C14.3609 42.4225 14.7009 42.1952 14.8273 41.8325C14.9869 41.3741 14.7448 40.873 14.2863 40.7134L9.57411 39.0722C8.80642 38.8047 8.39954 37.9628 8.66697 37.1953L11.6092 28.7483C11.7806 28.2564 11.6647 27.7152 11.3065 27.3359C10.9508 26.9592 10.4215 26.8131 9.92474 26.9548C6.9299 27.8082 3.76198 26.3938 2.39335 23.5915C1.64909 22.0681 1.55616 20.3263 2.13167 18.6873C2.71467 17.027 3.95065 15.649 5.52283 14.9065C8.95864 13.2842 13.6671 12.0422 22.5411 15.1334C27.4472 16.8422 32.852 19.3854 35.8809 25.2643C33.3958 25.5036 30.8508 26.0312 28.3946 27.1252C26.7643 24.4904 24.3711 22.7999 20.3577 21.4017C15.5694 19.7337 12.3193 19.8063 8.76622 21.6605C7.59037 22.2743 7.13298 23.7304 7.74646 24.9063C8.36017 26.0824 9.81622 26.5398 10.9923 25.9262C12.9983 24.8793 14.8327 24.5723 18.7751 25.9455C21.3089 26.8282 23.0709 27.7458 24.2755 29.6258C23.761 30.0364 23.2554 30.4834 22.7603 30.9697C21.1864 32.5153 20.2808 34.6789 20.2754 36.9056C20.2739 37.5528 20.3473 38.1863 20.4875 38.7979L19.7064 41.0406C19.4637 41.737 18.7371 42.1497 18.0173 41.9997C17.5421 41.9011 17.0767 42.2062 16.978 42.6814C16.8792 43.1567 17.1844 43.622 17.6596 43.7209C17.878 43.7662 18.0964 43.7881 18.3124 43.7881C19.6604 43.7881 20.9076 42.935 21.3663 41.619L21.4959 41.2469C21.8221 41.7705 22.2087 42.2598 22.6557 42.703C25.3087 45.3338 29.3622 45.8204 32.5352 43.9688V52.2382C32.5352 54.0201 33.9849 55.4699 35.767 55.4699H44.5087C46.2906 55.4699 47.7405 54.0202 47.7405 52.2382V43.969C50.9137 45.8204 54.9671 45.3338 57.62 42.7031C59.1603 41.1756 60.0055 39.1166 60.0003 36.9057C59.9944 34.679 59.0888 32.5155 57.5148 30.97ZM30.234 16.7363C29.8654 16.5055 29.4929 16.2857 29.1171 16.0764C30.8452 13.6187 33.2007 12.2752 37.2091 11.3958C41.6847 10.4137 44.4247 10.785 47.3179 12.765C47.6129 12.9669 47.6886 13.371 47.4867 13.6658C47.3931 13.8025 47.2526 13.8974 47.091 13.9328C46.9144 13.9715 46.7349 13.9367 46.5858 13.8346C43.6658 11.8362 40.9394 11.9043 37.4868 12.6617C33.3917 13.5603 31.5361 14.9015 30.234 16.7363ZM19.353 24.2857C14.8507 22.7174 12.5048 23.1544 10.1792 24.368C9.86228 24.5333 9.46993 24.4102 9.3047 24.0933C9.13935 23.7765 9.26263 23.3843 9.57939 23.219C12.6877 21.5971 15.4522 21.5544 19.7795 23.0618C23.2967 24.287 25.4041 25.7275 26.8147 27.9173C26.4405 28.1273 26.0695 28.353 25.7017 28.5943C24.2428 26.3607 22.1564 25.2622 19.353 24.2857ZM56.382 41.455C54.1676 43.651 50.7108 43.9449 48.1633 42.1537C47.7406 41.8566 47.1928 41.8203 46.7331 42.059C46.2701 42.2994 45.9826 42.7724 45.9826 43.2934V52.2382C45.9826 53.051 45.3213 53.7121 44.5086 53.7121H35.7668C34.9539 53.7121 34.2928 53.0508 34.2928 52.2382V43.2934C34.2928 42.7725 34.0052 42.2996 33.5423 42.0591C33.3405 41.9543 33.1216 41.9025 32.9039 41.9025C32.6256 41.9025 32.3491 41.9871 32.1119 42.1537C29.564 43.9449 26.1077 43.6509 23.8932 41.455C23.1036 40.672 22.5497 39.7076 22.2616 38.6468C22.2559 38.6209 22.249 38.5954 22.2409 38.5703C22.1032 38.0369 22.0315 37.4803 22.0329 36.9101C22.0372 35.1505 22.7512 33.4425 23.9917 32.2241C24.5311 31.6943 25.1235 31.1623 25.7996 30.6498C25.8089 30.6453 25.8184 30.6422 25.8276 30.6374C25.9233 30.5878 26.0051 30.5224 26.0734 30.4469C26.7208 29.9775 27.4441 29.5273 28.2686 29.1138C28.3312 29.0968 28.393 29.0733 28.4526 29.0414C28.4921 29.0203 28.5286 28.9958 28.5634 28.9698C31.1827 27.7207 34.7932 26.8403 40.1374 26.8403C45.4106 26.8403 51.4525 27.4799 56.2832 32.2242C57.5237 33.4425 58.2377 35.1506 58.242 36.9102C58.2464 38.647 57.5857 40.261 56.382 41.455Z" fill="#4472C4"/>
<path d="M45.1931 31.0112C45.6786 31.0112 46.072 30.6177 46.072 30.1323V29.2931C46.072 28.8077 45.6786 28.4142 45.1931 28.4142C44.7076 28.4142 44.3142 28.8077 44.3142 29.2931V30.1323C44.3143 30.6178 44.7077 31.0112 45.1931 31.0112Z" fill="#4472C4"/>
<path d="M40.1377 31.6557C40.9026 31.6557 41.6299 31.3244 42.1331 30.7469C42.452 30.381 42.4137 29.8258 42.0478 29.507C41.6818 29.1881 41.1267 29.2261 40.8078 29.5922C40.6385 29.7865 40.3941 29.8979 40.1375 29.8979C39.8808 29.8979 39.6365 29.7865 39.4671 29.5922C39.1482 29.2262 38.593 29.1881 38.2272 29.507C37.8612 29.8258 37.823 30.381 38.1419 30.7469C38.6453 31.3244 39.3727 31.6557 40.1377 31.6557Z" fill="#4472C4"/>
<path d="M35.082 31.0112C35.5675 31.0112 35.9609 30.6177 35.9609 30.1323V29.2931C35.9609 28.8077 35.5675 28.4142 35.082 28.4142C34.5965 28.4142 34.2031 28.8077 34.2031 29.2931V30.1323C34.2032 30.6178 34.5965 31.0112 35.082 31.0112Z" fill="#4472C4"/>
</svg>
