<svg width="60" height="60" viewBox="0 0 60 60" fill="none" xmlns="http://www.w3.org/2000/svg">
<path d="M42 29.067V7C42 2.4 31.436 0 21 0C10.564 0 0 2.4 0 7V48C0 52.363 9.6 54.647 18.712 54.962C21.246 58.277 30.168 60 39 60C49.436 60 60 57.6 60 53V36C60 31.846 51.367 29.482 42 29.067ZM58 49C58 51.088 50.772 54 39 54C38.29 54 37.628 53.99 37 53.97V46.97C37.63 46.99 38.292 46.999 39 46.999C46.693 46.999 54.451 45.691 58 43.163V49ZM58 36C58 37.839 52.385 40.316 43 40.88V38.07C43 35.8609 41.2091 34.07 39 34.07C36.7909 34.07 35 35.8609 35 38.07V40.88C25.615 40.316 20 37.839 20 36C20 35.468 20.475 34.883 21.369 34.3C21.4066 34.2819 21.4427 34.2609 21.477 34.237C24.149 32.577 30.338 31 39 31C50.772 31 58 33.912 58 36ZM41 40.969C40.348 40.988 39.683 41 39 41C38.317 41 37.652 40.988 37 40.969V38.069C37 36.9644 37.8954 36.069 39 36.069C40.1046 36.069 41 36.9644 41 38.069V40.969ZM20 43.138C22.4428 44.6364 25.1645 45.6231 28 46.038V52.998C22.743 51.92 20 50.215 20 49V43.138ZM39 29C32.534 29 26.021 29.924 22 31.719V18.993C29.358 18.885 36.6 17.583 40 15.164V29.008C39.667 29 39.333 29 39 29ZM21 2C32.772 2 40 4.912 40 7C40 8.839 34.385 11.316 25 11.88V9C25 6.79086 23.2091 5 21 5C18.7909 5 17 6.79086 17 9V11.88C7.615 11.316 2 8.839 2 7C2 4.912 9.228 2 21 2ZM23 11.969C22.348 11.988 21.683 12 21 12C20.317 12 19.652 11.988 19 11.969V9C19 7.89543 19.8954 7 21 7C22.1046 7 23 7.89543 23 9V11.969ZM2 48V46.163C3.76363 47.2824 5.71022 48.0832 7.751 48.529C7.83241 48.5495 7.91604 48.5599 8 48.56C8.50452 48.561 8.93075 48.186 8.99405 47.6855C9.05734 47.1849 8.73788 46.7156 8.249 46.591C3.932 45.484 2 43.99 2 43V40.163C3.76363 41.2824 5.71022 42.0832 7.751 42.529C7.83241 42.5495 7.91604 42.5599 8 42.56C8.50452 42.561 8.93075 42.186 8.99405 41.6855C9.05734 41.1849 8.73788 40.7156 8.249 40.591C3.932 39.484 2 37.99 2 37V34.163C3.76363 35.2824 5.71022 36.0832 7.751 36.529C7.83241 36.5495 7.91604 36.5599 8 36.56C8.50452 36.561 8.93075 36.186 8.99405 35.6855C9.05734 35.1849 8.73788 34.7156 8.249 34.591C3.932 33.484 2 31.99 2 31V28.163C3.76363 29.2824 5.71022 30.0832 7.751 30.529C7.83241 30.5495 7.91604 30.5599 8 30.56C8.50452 30.561 8.93075 30.186 8.99405 29.6855C9.05734 29.1849 8.73788 28.7156 8.249 28.591C3.932 27.484 2 25.99 2 25V22.163C3.76363 23.2824 5.71022 24.0832 7.751 24.529C7.83241 24.5495 7.91604 24.5599 8 24.56C8.50452 24.561 8.93075 24.186 8.99405 23.6855C9.05734 23.1849 8.73788 22.7156 8.249 22.591C3.932 21.484 2 19.99 2 19V16.163C3.76363 17.2824 5.71022 18.0832 7.751 18.529C7.83241 18.5495 7.91604 18.5599 8 18.56C8.50452 18.561 8.93075 18.186 8.99405 17.6855C9.05734 17.1849 8.73788 16.7156 8.249 16.591C3.932 15.484 2 13.99 2 13V10.164C5.549 12.692 13.307 14 21 14C28.693 14 36.451 12.692 40 10.164V12C40 14.088 32.772 17 21 17C20.4477 17 20 17.4477 20 18V32.836C18.8506 33.4944 18.1016 34.6792 18 36V52.927C7.691 52.457 2 49.776 2 48ZM39 58C27.228 58 20 55.088 20 53V52.13C21.817 53.43 24.821 54.489 28.829 55.186C28.8855 55.1951 28.9427 55.1998 29 55.2C29.5523 55.2 30 54.7523 30 54.2V45.2C29.9999 44.7138 29.65 44.2981 29.171 44.215C23.15 43.168 20 41.3 20 40V39.164C23.549 41.692 31.307 43 39 43C46.693 43 54.451 41.692 58 39.164V40C58 42.088 50.772 45 39 45C37.923 45 36.958 44.978 36.051 44.932C35.7771 44.918 35.5094 45.0172 35.3107 45.2062C35.112 45.3953 34.9996 45.6577 35 45.932V54.932C34.9993 55.465 35.4167 55.9048 35.949 55.932C36.891 55.98 37.889 56.003 39 56.003C46.693 56.003 54.451 54.695 58 52.167V53C58 55.088 50.772 58 39 58Z" fill="#4472C4"/>
</svg>
