<svg width="45" height="45" viewBox="0 0 45 45" fill="none" xmlns="http://www.w3.org/2000/svg">
<path d="M35.112 29.0232C34.5438 29.0232 34.0724 28.6088 33.9836 28.0658C33.1221 28.669 32.0741 29.0232 30.9447 29.0232C28.0162 29.0232 25.6338 26.6407 25.6338 23.7123C25.6338 20.7838 28.0162 18.4014 30.9447 18.4014C32.0739 18.4014 33.1219 18.7556 33.9836 19.3587C34.0724 18.8156 34.5439 18.4014 35.112 18.4014C35.7436 18.4014 36.2556 18.9134 36.2556 19.5449V27.8796C36.2556 28.5112 35.7436 29.0232 35.112 29.0232ZM30.9447 20.6883C29.2774 20.6883 27.9209 22.0448 27.9209 23.7121C27.9209 25.3794 29.2774 26.7359 30.9447 26.7359C32.612 26.7359 33.9685 25.3794 33.9685 23.7121C33.9685 22.0448 32.612 20.6883 30.9447 20.6883ZM18.3699 29.0232C14.3067 29.0232 11.001 25.7175 11.001 21.6543C11.001 17.5911 14.3067 14.2854 18.3699 14.2854C19.8465 14.2854 21.2714 14.7209 22.4908 15.5445C23.0141 15.8981 23.1516 16.609 22.7982 17.1324C22.4447 17.6559 21.7339 17.7933 21.2104 17.4398C20.3707 16.8725 19.3885 16.5725 18.3701 16.5725C15.568 16.5725 13.2883 18.8522 13.2883 21.6543C13.2883 24.4564 15.568 26.736 18.3701 26.736C19.4274 26.736 20.3209 26.4177 21.0261 25.7895C21.1632 25.6673 21.2943 25.5321 21.416 25.3871C21.8219 24.9033 22.5432 24.84 23.027 25.246C23.5108 25.6521 23.574 26.3733 23.1681 26.8571C22.9755 27.0866 22.7666 27.302 22.547 27.4975C21.4265 28.4956 19.9821 29.0232 18.3699 29.0232Z" fill="#4472C4"/>
<path d="M45 10.8547C45 11.4862 44.488 11.9982 43.8564 11.9982C43.2249 11.9982 42.7128 11.4862 42.7128 10.8547V39.2823C42.7128 41.1741 41.1739 42.713 39.2821 42.713H11.9321L9.64491 42.7128H5.71788C3.8261 42.7128 2.28715 41.1739 2.28715 39.2821V32.4538C2.28715 32.4373 2.2868 32.4209 2.28612 32.4046C2.25952 32.5407 1.72451 35.2395 1.14358 35.2395C0.562638 35.2395 0.0276335 32.5407 0.00103566 32.4046C0.000347508 32.4209 0 32.4373 0 32.4538V39.2821C0 42.435 2.56496 45 5.71788 45H39.2821C42.435 45 45 42.435 45 39.2821V10.8547Z" fill="#4472C4"/>
<path d="M1.14358 31.3102C0.528471 31.3102 0.0267602 31.7959 0.00103566 32.4046C0.0276335 32.5407 0.562638 35.2395 1.14358 35.2395C1.72451 35.2395 2.25952 32.5407 2.28612 32.4046C2.26039 31.7959 1.75868 31.3102 1.14358 31.3102Z" fill="#4472C4"/>
<path d="M0 5.71788V32.3993L0.00103566 32.4046C0.0267602 31.7959 0.528471 31.3102 1.14358 31.3102C1.75868 31.3102 2.26039 31.7959 2.28612 32.4046L2.28715 32.3993V5.71788C2.28715 3.8261 3.8261 2.28715 5.71788 2.28715H39.2821C41.1739 2.28715 42.7128 3.8261 42.7128 5.71788V10.8547C42.7128 11.4862 43.2249 11.9982 43.8564 11.9982C44.488 11.9982 45 11.4862 45 10.8547V5.71788C45 2.56496 42.435 0 39.2821 0H5.71788C2.56496 0 0 2.56496 0 5.71788Z" fill="#4472C4"/>
</svg>
