<svg width="60" height="60" viewBox="0 0 60 60" fill="none" xmlns="http://www.w3.org/2000/svg">
<path d="M52.3046 48.1473C52.7901 48.1473 53.1835 47.7538 53.1835 47.2684V44.3371C53.1835 41.0193 52.1782 37.8307 50.276 35.1161C49.8159 34.4595 49.4074 33.7842 49.0617 33.1091C48.243 31.5103 47.8101 29.6855 47.8101 27.8316V27.1504C48.6423 26.8071 49.2299 25.9879 49.2299 25.0334V23.7988C49.2299 22.5362 48.2026 21.5089 46.94 21.5089H43.9895C44.5513 20.012 44.8354 18.4363 44.8354 16.8107V10.7739C44.8354 8.53875 43.0169 6.72035 40.7818 6.72035H38.4031V5.3666C39.877 5.3598 41.0741 4.15898 41.0741 2.68348C41.0742 1.20375 39.8704 0 38.3908 0H27.8769C27.3914 0 26.998 0.393516 26.998 0.878906C26.998 1.3643 27.3914 1.75781 27.8769 1.75781H38.3908C38.9012 1.75781 39.3164 2.17301 39.3164 2.68336C39.3164 3.19371 38.9012 3.60902 38.3908 3.60902C37.6243 3.60902 14.1202 3.60902 13.2614 3.60902C12.751 3.60902 12.3358 3.19383 12.3358 2.68336C12.3358 2.17301 12.751 1.75781 13.2614 1.75781H23.7753C24.2608 1.75781 24.6542 1.3643 24.6542 0.878906C24.6542 0.393516 24.2608 0 23.7753 0H13.2614C11.7818 0 10.578 1.20375 10.578 2.68336C10.578 4.15887 11.7751 5.35969 13.249 5.36648V6.72023H10.8703C8.63517 6.72023 6.81665 8.53863 6.81665 10.7737V16.8105C6.81665 19.707 7.73435 22.5158 9.51548 24.8783V54.9519C9.51548 57.7354 11.7799 59.9999 14.5633 59.9999H50.0411C51.7738 59.9999 53.1834 58.5902 53.1834 56.8576V51.3698C53.1834 50.8845 52.79 50.4909 52.3045 50.4909C51.819 50.4909 51.4256 50.8845 51.4256 51.3698V56.8576C51.4256 57.621 50.8045 58.2421 50.0411 58.2421H37.8719C37.1136 58.2421 36.4876 57.6142 36.4876 56.8576V44.3371C36.4876 42.5626 36.8074 40.8373 37.4443 39.1874C38.1588 38.7289 40.5724 37.4876 43.4819 39.355C45.9022 40.9084 48.4702 40.9912 50.7246 39.9052C51.1864 41.3241 51.4257 42.8149 51.4257 44.337V47.2683C51.4257 47.7538 51.8191 48.1473 52.3046 48.1473ZM47.4722 23.7988V25.0334C47.4722 25.3109 47.2428 25.5654 46.9313 25.5654H40.982C40.6715 25.5654 40.4411 25.3119 40.4411 25.0334V23.7988C40.4411 23.5104 40.6848 23.2668 40.9731 23.2668H46.9401C47.2285 23.2668 47.4722 23.5104 47.4722 23.7988ZM35.4722 25.3368C35.4722 25.3366 35.472 25.3366 35.4722 25.3368C34.8947 25.1279 34.0364 25.0917 33.224 26.1055C33.1085 26.2485 32.981 26.2562 32.8815 26.1804C31.6816 25.2643 30.3195 24.7801 28.9427 24.7801H22.7094C21.3325 24.7801 19.9705 25.2643 18.7704 26.1804C18.6717 26.2559 18.5438 26.2487 18.4281 26.1055C17.0625 24.4008 14.9445 25.3757 14.9445 27.1964C13.5091 26.4709 12.2686 25.4771 11.2733 24.2884V14.583C11.2733 14.0728 11.4638 13.5854 11.8099 13.2105C13.2171 11.6861 15.0067 10.1195 15.0067 6.93398V5.36684H36.6453V6.93398C36.6453 10.1164 38.4467 11.6988 39.8421 13.2105C40.1881 13.5854 40.3787 14.0728 40.3787 14.583V21.5871C39.391 21.853 38.683 22.7623 38.683 23.7988V25.0334C38.683 25.2824 38.7287 25.5574 38.8209 25.8116C38.1658 26.3508 37.4586 26.8125 36.7073 27.1946C36.7075 26.2542 36.1876 25.5954 35.4722 25.3368ZM34.9497 27.0971V30.3307C34.9497 30.3787 34.9194 30.422 34.8743 30.4382C34.8433 30.4494 34.8252 30.4515 34.8251 30.4521C34.7511 30.4293 34.5929 30.218 34.5433 30.1586C33.8608 29.3387 32.6624 29.2035 31.815 29.8504C30.924 30.5305 29.9309 30.89 28.9427 30.89H22.7094C21.7211 30.89 20.728 30.5305 19.837 29.8504C18.9892 29.2031 17.7908 29.3392 17.1088 30.1587C17.062 30.2146 16.9004 30.4293 16.8313 30.4515C16.7429 30.4418 16.7024 30.3891 16.7024 30.3308V27.0973C16.7024 27.0492 16.7327 27.006 16.7777 26.9898C16.8083 26.9788 16.8261 26.9767 16.8265 26.9761C16.9005 26.9986 17.0593 27.2099 17.1088 27.2694C17.7911 28.0894 18.9897 28.2247 19.837 27.5776C20.7281 26.8975 21.7213 26.5379 22.7094 26.5379H28.9427C29.9308 26.5379 30.924 26.8975 31.815 27.5776C32.6627 28.2246 33.8613 28.089 34.5434 27.2692C34.59 27.2133 34.7522 26.9986 34.8215 26.9767C34.8809 26.9736 34.9497 27.0243 34.9497 27.0971ZM43.0777 10.7739V16.8107C43.0777 18.41 42.7608 19.9527 42.1367 21.4031V14.5832C42.1367 13.6297 41.7806 12.7188 41.1338 12.0184C39.7981 10.5712 39.0579 9.93586 38.627 8.47816H40.782C42.0479 8.47805 43.0777 9.50789 43.0777 10.7739ZM8.57446 16.8107V10.7739C8.57446 9.50801 9.60431 8.47816 10.8703 8.47816H13.0252C12.5905 9.94875 11.8324 10.5948 10.5184 12.0183C9.87161 12.7188 9.51548 13.6296 9.51548 14.5832V21.4269C8.90575 20.0025 8.57446 18.4397 8.57446 16.8107ZM11.2733 54.952V26.7927C12.3567 27.7655 13.5928 28.5571 14.9445 29.1357V30.3308C14.9445 31.941 17.0211 33.0802 18.4276 31.3232L18.4598 31.2832C18.5376 31.1898 18.674 31.1741 18.7704 31.2477C19.9702 32.1637 21.3323 32.648 22.7093 32.648H28.9426C30.3195 32.648 31.6816 32.1637 32.8813 31.2478C32.9809 31.1719 33.1086 31.1798 33.2244 31.3233C34.6274 33.0763 36.7074 31.9447 36.7074 30.3309V29.1342C37.9024 28.6226 39.0104 27.9444 40.0113 27.1087C40.0418 27.1229 40.0718 27.1377 40.1029 27.1506V27.8317C40.1029 29.6854 39.6703 31.5102 38.8515 33.109C38.5058 33.7842 38.097 34.4596 37.6368 35.1163C35.735 37.8306 34.7295 41.0191 34.7295 44.3372V56.8579C34.7295 57.3154 34.8331 57.7985 35.0518 58.2423H14.5633C12.7493 58.2422 11.2733 56.7662 11.2733 54.952ZM44.4313 37.8757C42.1763 36.4284 40.1256 36.4322 38.6332 36.8014C39.4522 35.4817 41.8608 32.6457 41.8608 27.8316V27.3232H46.0523V27.8317C46.0523 33.2422 48.8756 35.711 50.0757 38.2677C49.0779 38.7803 46.9331 39.4813 44.4313 37.8757Z" fill="white"/>
</svg>
