<svg width="60" height="60" viewBox="0 0 60 60" fill="none" xmlns="http://www.w3.org/2000/svg">
<path d="M52.722 55.4127C52.5691 55.2424 52.4849 54.9664 52.4849 54.6356V36.1542C52.4849 30.2309 50.2636 24.5871 46.2302 20.2627C43.1615 16.9726 39.2986 14.7314 35.073 13.7364C35.3893 13.2877 35.5758 12.7412 35.5758 12.1518C35.5758 11.4596 35.319 10.8268 34.8964 10.3421C38.3522 6.40887 38.394 1.11305 38.394 0.879141C38.394 0.39375 38.0004 0.000234375 37.5151 0.000234375C36.3676 0.000234375 35.7434 0.31207 35.242 0.562617C34.8038 0.781523 34.4872 0.939609 33.7543 0.939609C33.0214 0.939609 32.7049 0.781406 32.2667 0.562617C31.7651 0.311836 31.141 0 29.9934 0C28.847 0 28.2236 0.311953 27.7227 0.562617C27.2856 0.781406 26.9697 0.939375 26.2387 0.939375C25.5079 0.939375 25.1921 0.781289 24.7551 0.562617C24.2542 0.311953 23.6309 0 22.4848 0C21.9994 0 21.6059 0.393516 21.6059 0.878906C21.6059 1.11281 21.6477 6.40875 25.1035 10.3419C24.6809 10.8266 24.424 11.4594 24.424 12.1515C24.424 12.7356 24.6071 13.2775 24.9181 13.7238C20.9895 14.6258 17.3696 16.5773 14.3873 19.4555C9.9556 23.7325 7.51493 29.4789 7.51493 35.6364V54.6356C7.51493 54.9664 7.43068 55.2424 7.27775 55.4128C6.77126 55.977 6.52494 56.7043 6.58423 57.461C6.69579 58.8847 7.95462 60 9.45017 60H50.5497C52.0453 60 53.3041 58.8847 53.4156 57.4609C53.4748 56.7043 53.2285 55.977 52.722 55.4127ZM23.4384 1.89703C23.6205 1.96043 23.7835 2.04211 23.9683 2.13457C24.4692 2.38523 25.0925 2.69719 26.2387 2.69719C27.385 2.69719 28.0085 2.38523 28.5093 2.13457C28.9464 1.91578 29.2624 1.75781 29.9935 1.75781C30.7264 1.75781 31.043 1.91602 31.4812 2.1348C31.9826 2.38535 32.6068 2.69719 33.7543 2.69719C34.9018 2.69719 35.526 2.38535 36.0275 2.1348C36.2145 2.04141 36.3793 1.95902 36.564 1.89527C36.3779 3.55758 35.712 6.92367 33.3369 9.44344C33.1687 9.41133 32.9955 9.39387 32.8181 9.39387H32.2454C32.4527 8.57941 32.6226 7.65422 32.7509 6.62391C32.8109 6.14227 32.4691 5.70316 31.9874 5.64305C31.5053 5.58305 31.0666 5.92488 31.0066 6.40652C30.8628 7.56047 30.6667 8.55996 30.4239 9.39387H29.5761C29.3331 8.56008 29.1371 7.56047 28.9934 6.40652C28.9334 5.92477 28.4941 5.58305 28.0126 5.64305C27.5309 5.70305 27.1891 6.14215 27.2491 6.62391C27.3774 7.65422 27.5472 8.57941 27.7546 9.39387H27.1819C27.0046 9.39387 26.8313 9.41133 26.6633 9.44344C24.2989 6.93398 23.6281 3.5625 23.4384 1.89703ZM33.818 12.1515C33.818 12.7028 33.3694 13.1514 32.8182 13.1514H27.1818C26.6304 13.1514 26.182 12.7028 26.182 12.1515C26.182 11.6003 26.6304 11.1517 27.1818 11.1517H32.8182C33.3695 11.1517 33.818 11.6003 33.818 12.1515ZM51.6632 57.3237C51.6236 57.8302 51.124 58.2422 50.5497 58.2422H9.45017C8.87583 58.2422 8.37626 57.8302 8.33665 57.3237C8.31533 57.0514 8.4038 56.7898 8.58568 56.5872C9.02876 56.0938 9.27275 55.4006 9.27275 54.6356V35.6364C9.27275 29.9603 11.5226 24.663 15.608 20.7204C19.2976 17.1598 24.0455 15.1365 29.121 14.9283V15.9093C29.121 16.3946 29.5145 16.7882 29.9999 16.7882C30.4853 16.7882 30.8788 16.3946 30.8788 15.9093V14.9288C36.228 15.1511 41.2191 17.4674 44.9446 21.4616C48.6734 25.4595 50.727 30.6775 50.727 36.1542V54.6356C50.727 55.4007 50.971 56.0938 51.4141 56.587C51.5961 56.7898 51.6845 57.0514 51.6632 57.3237Z" fill="white"/>
<path d="M41.2728 54.4846H13.0909C12.6056 54.4846 12.212 54.8781 12.212 55.3635C12.212 55.8489 12.6056 56.2424 13.0909 56.2424H41.2726C41.758 56.2424 42.1516 55.8489 42.1516 55.3635C42.1516 54.8781 41.7582 54.4846 41.2728 54.4846Z" fill="white"/>
<path d="M46.9092 54.4846H45.0306C44.5452 54.4846 44.1517 54.8781 44.1517 55.3635C44.1517 55.8489 44.5452 56.2424 45.0306 56.2424H46.9092C47.3945 56.2424 47.7881 55.8489 47.7881 55.3635C47.7881 54.8781 47.3945 54.4846 46.9092 54.4846Z" fill="white"/>
<path d="M36.5758 29.1211C36.0904 29.1211 35.6969 29.5146 35.6969 30V31.0534C33.2282 31.3448 31.1254 32.8459 30.0001 34.9472C28.8747 32.8459 26.7719 31.3448 24.3032 31.0534V30C24.3032 29.5146 23.9097 29.1211 23.4243 29.1211C22.9389 29.1211 22.5454 29.5146 22.5454 30V31.8788C22.5454 35.6918 25.4237 38.8433 29.1212 39.2798V39.3939C29.1212 39.8793 29.5147 40.2728 30.0001 40.2728C30.4855 40.2728 30.879 39.8793 30.879 39.3939V39.2798C34.5765 38.8433 37.4547 35.6918 37.4547 31.8788V30C37.4547 29.5146 37.0612 29.1211 36.5758 29.1211ZM24.3841 32.8385C26.7577 33.243 28.6358 35.1211 29.0403 37.4947C26.6667 37.0902 24.7886 35.2121 24.3841 32.8385ZM30.9598 37.4947C31.3644 35.1211 33.2424 33.243 35.616 32.8385C35.2115 35.2121 33.3335 37.0902 30.9598 37.4947Z" fill="white"/>
<path d="M36.5758 37.5756C36.0904 37.5756 35.6969 37.9691 35.6969 38.4545V39.5079C33.2282 39.7993 31.1254 41.3004 30.0001 43.4018C28.8747 41.3005 26.7719 39.7993 24.3032 39.5079V38.4545C24.3032 37.9691 23.9097 37.5756 23.4243 37.5756C22.9389 37.5756 22.5454 37.9691 22.5454 38.4545V40.3332C22.5454 44.1463 25.4237 47.2978 29.1212 47.7343V50.6666C29.1212 51.152 29.5147 51.5455 30.0001 51.5455C30.4855 51.5455 30.879 51.152 30.879 50.6666V47.7343C34.5765 47.2978 37.4547 44.1463 37.4547 40.3332V38.4545C37.4547 37.9691 37.0612 37.5756 36.5758 37.5756ZM24.3841 41.2931C26.7577 41.6975 28.6358 43.5757 29.0403 45.9493C26.6667 45.5448 24.7886 43.6666 24.3841 41.2931ZM30.9598 45.9492C31.3644 43.5757 33.2424 41.6975 35.616 41.293C35.2115 43.6666 33.3335 45.5448 30.9598 45.9492Z" fill="white"/>
<path d="M30.6322 20.935C30.4666 20.7635 30.2384 20.6666 30 20.6666C29.7615 20.6666 29.5333 20.7635 29.3677 20.935C26.6265 23.7736 26.5444 28.3388 29.121 31.2812V31.8788C29.121 32.3642 29.5146 32.7577 30 32.7577C30.4853 32.7577 30.8789 32.3642 30.8789 31.8788V31.2812C33.4555 28.3388 33.3734 23.7736 30.6322 20.935ZM30 29.5479C28.6669 27.57 28.6669 24.9148 30 22.937C31.333 24.9148 31.333 27.57 30 29.5479Z" fill="white"/>
</svg>
