<svg width="60" height="55" viewBox="0 0 60 55" fill="none" xmlns="http://www.w3.org/2000/svg">
<path d="M11.5247 38.5872L10.7812 39.3306L10.0378 38.5872L8.71216 39.9128L9.4556 40.6562L8.71216 41.3997L10.0378 42.7253L10.7812 41.9818L11.5247 42.7253L12.8503 41.3997L12.1068 40.6562L12.8503 39.9128L11.5247 38.5872Z" fill="white"/>
<path d="M56.611 40.1875C53.8585 40.1875 51.3732 41.5178 49.8216 43.6759L49.3463 42.5209C45.9488 34.27 37.9876 28.9375 29.0626 28.9375H28.4832L28.2244 29.4559L26.5876 32.7287C26.2679 32.7166 25.951 32.6875 25.6304 32.6875H20.9438C14.4582 32.6875 8.23131 35.0772 3.41162 39.4178L0.645996 41.9087L1.09506 42.5828C5.96537 49.8888 14.116 54.25 22.8957 54.25H26.6241C34.7944 54.25 42.6188 51.8144 49.3294 47.2066C50.8079 49.8062 53.5519 51.4375 56.611 51.4375C57.9629 51.4375 59.0626 50.3378 59.0626 48.9859V42.6381C59.0626 41.2872 57.9629 40.1875 56.611 40.1875ZM47.3832 42.7319L45.196 40.9553L45.7772 39.7938C46.3866 40.7163 46.9238 41.6969 47.3832 42.7319ZM44.5304 38.0941L43.7054 39.7441L42.2747 38.5816C42.0282 38.3809 41.7638 38.2047 41.5107 38.0134L42.5222 35.9903C43.2385 36.6391 43.9107 37.3412 44.5304 38.0941ZM29.6382 30.8209C30.6254 30.8491 31.5985 30.9484 32.551 31.1144L31.4307 33.3559C30.5007 33.1469 29.5604 32.9856 28.6097 32.8769L29.6382 30.8209ZM34.4307 31.5484C35.3223 31.795 36.1913 32.0987 37.0332 32.4625L35.8763 34.7763C35.0288 34.42 34.1635 34.1116 33.2822 33.8453L34.4307 31.5484ZM38.7169 33.2875C39.5232 33.7291 40.2957 34.2259 41.0335 34.7744L39.9591 36.9241C39.1894 36.4281 38.3944 35.9781 37.5788 35.5656L38.7169 33.2875ZM26.6232 52.375H22.8947C21.3141 52.375 19.7579 52.2156 18.2401 51.9212L18.9704 50.7044C19.6013 49.6525 20.0588 48.5125 20.3307 47.3275C22.9322 48.1684 25.9463 47.4428 27.8804 45.5078L31.5826 41.8056L26.4713 39.25C24.0179 38.0228 20.9822 38.0228 18.5279 39.25L17.6035 39.7131L18.2504 41.6537C18.5813 42.6484 18.7501 43.6834 18.7501 44.7316C18.7501 46.4959 18.2701 48.2275 17.3635 49.7397L16.3285 51.4656C11.0513 49.9891 6.37506 46.7659 3.11443 42.2078L4.66506 40.8109C9.14068 36.7816 14.9222 34.5625 20.9438 34.5625H25.6304C31.2572 34.5625 36.7482 36.5059 41.0916 40.0356L48.1351 45.7591C41.7685 50.0913 34.3566 52.375 26.6232 52.375ZM20.0288 41.0603L19.9041 40.6863C21.7332 39.9578 23.8726 40.0469 25.6322 40.9272L28.4166 42.3194L26.5547 44.1822C25.0941 45.6428 22.816 46.1809 20.8576 45.5275L20.6035 45.4431C20.6176 45.2059 20.6251 44.9697 20.6251 44.7316C20.6251 44.4119 20.611 44.0931 20.5847 43.7762L24.5588 42.9812L24.1904 41.1428L20.2791 41.9247C20.2069 41.635 20.1244 41.3462 20.0288 41.0603ZM57.1876 48.9859C57.1876 49.3037 56.9288 49.5625 56.611 49.5625C54.0563 49.5625 51.7801 48.1028 50.7094 45.8125C51.7801 43.5222 54.0563 42.0625 56.611 42.0625C56.9288 42.0625 57.1876 42.3213 57.1876 42.6391V48.9859Z" fill="white"/>
<path d="M57.5766 13.9375L57.8175 13.6966C58.62 12.8931 59.0625 11.8263 59.0625 10.69C59.0625 8.34531 57.1556 6.4375 54.8109 6.4375C53.6756 6.4375 52.6069 6.88 51.8044 7.68344L50.2369 9.25H41.5622L41.2753 9.03531C34.2056 3.73281 25.4456 0.8125 16.6078 0.8125H14.0625C6.825 0.8125 0.9375 6.7 0.9375 13.9375C0.9375 21.175 6.825 27.0625 14.0625 27.0625H16.6078C25.4456 27.0625 34.2056 24.1422 41.2762 18.8397L41.5622 18.625H50.2369L51.8044 20.1916C52.6069 20.995 53.6756 21.4375 54.8109 21.4375C57.1556 21.4375 59.0625 19.5297 59.0625 17.185C59.0625 16.0488 58.62 14.9809 57.8175 14.1775L57.5766 13.9375ZM16.6078 25.1875H14.0625C7.85906 25.1875 2.8125 20.1409 2.8125 13.9375C2.8125 7.73406 7.85906 2.6875 14.0625 2.6875H16.6078C25.0425 2.6875 33.4041 5.47469 40.1512 10.5353L40.3125 10.6562V11.125V16.75V17.2188L40.1512 17.3397C33.4041 22.4003 25.0425 25.1875 16.6078 25.1875ZM56.4919 15.5041C56.94 15.9531 57.1875 16.5503 57.1875 17.185C57.1875 18.4956 56.1206 19.5625 54.8109 19.5625C54.1763 19.5625 53.58 19.315 53.13 18.8659L51.0131 16.75H42.1875V11.125H51.0131L53.13 9.00906C53.5791 8.56 54.1763 8.3125 54.8109 8.3125C56.1206 8.3125 57.1875 9.37938 57.1875 10.69C57.1875 11.3256 56.94 11.9219 56.4919 12.37L54.9234 13.9375L56.4919 15.5041Z" fill="white"/>
<path d="M20.625 6.4375H22.5V8.3125H20.625V6.4375Z" fill="white"/>
<path d="M16.875 18.625H18.75V20.5H16.875V18.625Z" fill="white"/>
<path d="M14.0625 8.3125H15.9375V10.1875H14.0625V8.3125Z" fill="white"/>
<path d="M10.3125 6.4375H12.1875V8.3125H10.3125V6.4375Z" fill="white"/>
<path d="M27.1875 13.9375H29.0625V15.8125H27.1875V13.9375Z" fill="white"/>
</svg>
