<svg width="60" height="60" viewBox="0 0 60 60" fill="none" xmlns="http://www.w3.org/2000/svg">
<path d="M55.1167 46.1935L54.4639 46.0438C60.7902 40.861 62.1384 29.3528 56.1796 23.3565C53.8867 21.0503 52.5171 17.4005 52.5171 13.5924C52.5171 8.07262 48.8861 3.58102 44.4219 3.58102C39.9592 3.58102 36.3268 8.07262 36.3268 13.5924C36.3268 14.8466 36.1785 16.0826 35.8965 17.2591C31.7377 12.4589 25.1335 11.9087 20.7175 14.9771V3.7179C20.7175 3.22992 20.3215 2.83395 19.834 2.83395C19.346 2.83395 18.95 3.22992 18.95 3.7179V7.18867C16.3101 2.42608 11.5063 1.15212 6.12666 2.23519C5.5833 2.34506 5.27339 2.92367 5.48305 3.43729C5.53248 3.55768 6.72313 6.42741 9.0234 8.94008C11.7457 11.9142 15.1245 13.3909 18.95 12.3317V14.9771C13.7585 11.3699 5.06602 12.6649 1.49499 20.89C1.3009 21.3377 1.5069 21.8573 1.95459 22.0519C2.40274 22.2464 2.92231 22.0413 3.11686 21.5932C6.38484 14.0675 14.1994 13.4596 18.344 16.7239C19.2068 17.4499 20.4652 17.4463 21.3236 16.7239C26.0417 13.0078 34.2042 14.6251 37.0011 22.7564C38.5049 27.1358 38.2041 31.7157 35.5939 36.4531C34.5557 38.3103 33.7024 39.8543 32.9975 41.1402C27.5235 39.961 26.7421 39.5298 24.879 39.5701C24.391 39.5797 24.0033 39.9825 24.0138 40.4705C24.0235 40.9598 24.4254 41.3485 24.9156 41.3366C25.2361 41.3297 25.6 41.3462 25.9841 41.3933L25.454 46.1541C25.4 46.6389 25.7492 47.076 26.2345 47.1301C26.7215 47.1841 27.1569 46.833 27.2109 46.3496L27.7236 41.7472C31.2543 42.5533 33.5523 43.0788 36.2902 43.7051L36.0375 45.9751C35.9835 46.4604 36.3328 46.8975 36.818 46.9515C37.3051 47.0056 37.7404 46.6544 37.7944 46.1706L38.0247 44.101C38.5708 44.226 51.1163 47.0916 51.2733 47.1278L50.5908 53.2559C50.5368 53.7411 50.8865 54.1783 51.3713 54.2323C51.8588 54.2863 52.2937 53.9352 52.3477 53.4518L53.0082 47.5242L54.7235 47.9165C56.8498 48.4017 58.2542 50.377 58.0116 52.5454C57.7713 54.702 55.9526 56.3321 53.7832 56.3366L44.736 56.354L45.0573 53.4719C45.1113 52.9867 44.7621 52.5495 44.2768 52.4955C43.7911 52.442 43.3544 52.7908 43.3004 53.276L42.9571 56.3577L34.2861 56.3742L34.5878 53.6647C34.6418 53.1799 34.2925 52.7427 33.8073 52.6887C33.3234 52.6342 32.8849 52.984 32.8309 53.4692C32.7558 54.1444 32.5145 56.306 32.5072 56.3778L28.3557 56.3856L28.8813 51.6693C28.9353 51.1845 28.586 50.7473 28.1008 50.6933C27.6151 50.6388 27.1784 50.9886 27.1244 51.4738L26.5764 56.3893C26.5677 56.3893 26.5613 56.3893 26.5563 56.3893C26.5558 56.3893 26.5549 56.3893 26.5544 56.3893C26.5531 56.3893 26.5517 56.3893 26.5503 56.3893C26.5503 56.3893 26.5499 56.3893 26.5494 56.3893C26.5476 56.3893 26.5467 56.3893 26.5448 56.3893C26.4876 56.3893 26.2102 56.3897 25.0809 56.392C21.6115 56.392 18.6374 54.0254 17.7919 50.7551C16.9244 47.4148 18.4433 43.6849 21.8623 42.0603C22.3032 41.8507 22.4913 41.3238 22.2817 40.8829C22.072 40.4421 21.5451 40.2535 21.1043 40.4636C19.3813 41.2812 17.991 42.5707 17.0659 44.1473C15.2769 43.2551 13.2307 41.8516 12.1394 39.7848C10.729 37.1055 6.66133 38.1116 6.6476 41.1365L3.87812 36.1016C1.97977 32.6523 1.28442 28.781 2.11069 24.7856C2.20957 24.3073 1.90195 23.8394 1.42358 23.7405C0.945218 23.6417 0.478297 23.9493 0.37942 24.4277C-0.506814 28.7151 0.166101 33.0222 2.32858 36.9539L6.10469 43.8172L3.3375 43.5087C1.73624 43.3306 0.295649 44.4814 0.117578 46.0836C-0.0600349 47.6808 1.09353 49.1255 2.69159 49.3035L7.27337 49.8135C6.13719 50.8306 5.22258 51.7526 5.33748 53.2064C5.53615 55.7763 8.76934 56.847 10.459 54.8741C11.8496 53.2467 14.0227 52.2415 16.2254 51.699C17.4229 55.4422 20.9395 58.1599 25.0809 58.1599C26.4276 58.1572 52.1591 58.1077 53.7855 58.1045C57.1268 58.0981 59.8065 55.3904 59.8065 52.068C59.806 49.2399 57.8779 46.8238 55.1167 46.1935ZM7.60204 3.77695C13.4793 2.97448 17.1854 5.77555 18.4232 10.643C13.6349 11.932 9.86935 8.14677 7.60204 3.77695ZM52.1586 45.5169L34.796 41.5499C35.2978 40.6307 35.8544 39.6163 36.4742 38.5003C38.1112 41.3201 41.1631 43.2198 44.6504 43.2198C49.1369 43.2198 53.032 40.031 53.9109 35.6374C54.0066 35.159 53.6953 34.6935 53.217 34.5983C52.7372 34.5026 52.2731 34.8125 52.1774 35.2909C51.4633 38.8605 48.2978 41.4524 44.6504 41.4524C41.4213 41.4524 38.6518 39.4478 37.5193 36.6179C38.9878 33.8228 39.6914 30.8693 39.6676 27.9396C44.1024 24.1475 50.9401 26.5393 52.1527 32.1419C52.2566 32.6194 52.7253 32.9224 53.2042 32.8185C53.6811 32.715 53.9842 32.2445 53.8803 31.7675C53.4317 29.692 52.2717 27.805 50.6182 26.4546C47.4766 23.8907 42.9859 23.6014 39.5275 25.8444C39.2332 23.5213 38.4609 21.1002 37.2272 19.0832C37.7939 17.3744 38.0947 15.5145 38.0947 13.5924C38.0947 9.51412 40.6348 5.34891 44.4219 5.34891C48.1687 5.34891 50.7492 9.45827 50.7492 13.5924C50.7492 17.9201 52.2717 21.9328 54.9258 24.6034C59.5291 29.2324 59.0837 37.8264 55.0851 42.8889C54.2163 43.9884 53.2275 44.8724 52.1586 45.5169ZM15.8491 49.9586C13.331 50.5711 10.7831 51.775 9.11541 53.7251C8.70388 54.2062 7.97787 54.2625 7.49721 53.8514C7.01519 53.4381 6.95888 52.7148 7.37133 52.2341C8.14083 51.3346 9.06277 50.5519 10.0438 49.922C10.7396 49.472 10.4873 48.393 9.66198 48.3019C8.8966 48.2163 3.46613 47.6107 2.88706 47.5462C2.259 47.4766 1.80399 46.9076 1.87357 46.2795C1.94315 45.6583 2.49933 45.1965 3.14158 45.266C3.14524 45.2665 3.1489 45.2665 3.1521 45.267C3.15027 45.267 3.14844 45.2665 3.14707 45.2665C3.15119 45.267 3.15806 45.2679 3.16813 45.2688C3.16767 45.2688 3.16721 45.2688 3.16629 45.2688C3.17591 45.2697 3.18277 45.2702 3.18689 45.2711C3.18369 45.2706 3.17911 45.2702 3.17408 45.2692C3.35489 45.2894 4.41096 45.407 9.29669 45.9518C9.57775 45.9339 10.4342 46.2978 10.8087 45.5297C10.9726 45.1928 10.9066 44.7909 10.6448 44.5235C9.78695 43.6488 9.08108 42.692 8.54733 41.6808C8.25161 41.121 8.46722 40.4256 9.02569 40.1299H9.02706C9.59195 39.8328 10.2804 40.0512 10.5766 40.6097C11.8789 43.0775 14.2676 44.719 16.3229 45.7407C15.8537 47.0641 15.6784 48.5345 15.8491 49.9586Z" fill="white"/>
</svg>
