<svg width="30" height="30" viewBox="0 0 30 30" fill="none" xmlns="http://www.w3.org/2000/svg">
<path fill-rule="evenodd" clip-rule="evenodd" d="M15 30C23.2843 30 30 23.2842 30 15C30 6.71582 23.2843 0 15 0C6.7157 0 0 6.71582 0 15C0 23.2842 6.7157 30 15 30ZM20.8845 10.1956C20.8845 10.792 20.401 11.2754 19.8044 11.2754C19.208 11.2754 18.7245 10.792 18.7245 10.1956C18.7245 9.59888 19.208 9.11548 19.8044 9.11548C20.401 9.11548 20.8845 9.59888 20.8845 10.1956ZM15 10.3784C14.0859 10.3784 13.1924 10.6494 12.4325 11.1572C11.6725 11.665 11.0801 12.387 10.7303 13.2314C10.3805 14.0759 10.2889 15.0051 10.4673 15.9016C10.6456 16.7981 11.0858 17.6216 11.7321 18.2678C12.3784 18.9143 13.2019 19.3542 14.0984 19.5327C14.9949 19.7109 15.9241 19.6194 16.7686 19.2698C17.613 18.9199 18.3348 18.3276 18.8427 17.5676C19.3505 16.8076 19.6215 15.9141 19.6215 15C19.6215 13.7742 19.1346 12.5989 18.2679 11.7322C17.4012 10.8655 16.2257 10.3784 15 10.3784ZM15 18C14.4066 18 13.8267 17.824 13.3333 17.4944C12.84 17.1648 12.4554 16.6963 12.2284 16.1479C12.0013 15.5999 11.9419 14.9966 12.0576 14.4148C12.1735 13.8328 12.4591 13.2981 12.8787 12.8787C13.2982 12.459 13.8328 12.1733 14.4147 12.0576C14.9967 11.9419 15.5999 12.0012 16.1481 12.2283C16.6963 12.4553 17.1648 12.8398 17.4944 13.3333C17.8241 13.8267 18 14.4067 18 15C18 15.7957 17.684 16.5586 17.1213 17.1213C16.5587 17.6838 15.7957 18 15 18ZM18.6367 7.67407C17.688 7.63062 17.403 7.62158 15 7.62158C13.6084 7.62158 12.9271 7.62451 12.4159 7.6355C12.0443 7.64355 11.7626 7.65576 11.3633 7.67407C10.7926 7.68066 10.2274 7.78564 9.69226 7.98364C9.30396 8.13354 8.95142 8.36279 8.6571 8.65723C8.36292 8.95142 8.13354 9.30396 7.98376 9.69214C7.78552 10.2273 7.68079 10.7927 7.67395 11.3633C7.63049 12.312 7.62146 12.5969 7.62146 15C7.62146 17.4031 7.63049 17.688 7.67395 18.6367C7.68079 19.2073 7.78552 19.7727 7.98376 20.3079C8.13354 20.696 8.36292 21.0486 8.6571 21.3428C8.95142 21.6372 9.30396 21.8665 9.69226 22.0164C10.2274 22.2144 10.7926 22.3193 11.3633 22.3259C11.8651 22.3489 12.1813 22.3623 12.7233 22.3699C13.2061 22.3765 13.868 22.3784 15 22.3784C17.403 22.3784 17.688 22.3694 18.6367 22.3259C19.2074 22.3193 19.7726 22.2144 20.3077 22.0164C20.696 21.8665 21.0486 21.6372 21.3429 21.3428C21.6371 21.0486 21.8665 20.696 22.0162 20.3079C22.2145 19.7727 22.3192 19.2073 22.326 18.6367C22.3695 17.688 22.3785 17.4045 22.3785 15.0007C22.3785 12.5969 22.3695 12.312 22.326 11.3633C22.3192 10.7927 22.2145 10.2273 22.0162 9.69214C21.8665 9.30396 21.6371 8.95142 21.3429 8.65723C21.0486 8.36279 20.696 8.13354 20.3077 7.98364C19.7726 7.78564 19.2074 7.68066 18.6367 7.67407ZM11.2889 6.05396C12.249 6.0105 12.5558 6 15 6C17.4449 6 17.7502 6.00977 18.7102 6.05469C19.4569 6.06958 20.1956 6.21069 20.895 6.47241C21.4929 6.70361 22.036 7.05737 22.4894 7.51074C22.9426 7.96411 23.2963 8.50708 23.5275 9.10498C23.7894 9.8042 23.9309 10.5425 23.946 11.2891C23.9895 12.249 24 12.5549 24 15C24 17.4451 23.9895 17.7502 23.946 18.7102C23.9313 19.4568 23.79 20.1956 23.5282 20.895C23.297 21.4929 22.9434 22.0359 22.4901 22.4893C22.0367 22.9426 21.4937 23.2964 20.8958 23.5276C20.1964 23.7896 19.4576 23.9309 18.7111 23.946C17.751 23.9895 17.4442 24 15 24C12.5558 24 12.2498 23.9895 11.2898 23.946C10.5431 23.9309 9.80432 23.7896 9.10498 23.5276C8.50708 23.2964 7.96399 22.9426 7.51062 22.4893C7.05737 22.0359 6.70374 21.4929 6.47253 20.895C6.21057 20.1958 6.06909 19.4575 6.05396 18.7109C6.0105 17.751 6 17.4451 6 15C6 12.5549 6.0105 12.2498 6.05396 11.2898C6.06897 10.543 6.21045 9.80444 6.47253 9.10498C6.70374 8.50708 7.05737 7.96411 7.51062 7.51074C7.96399 7.05737 8.50708 6.70361 9.10498 6.47241C9.80408 6.21069 10.5426 6.06909 11.2889 6.05396Z" fill="#0B182F"/>
</svg>
