<svg width="60" height="60" viewBox="0 0 60 60" fill="none" xmlns="http://www.w3.org/2000/svg">
<path d="M59.6701 28.3992C57.7207 26.4494 55.0771 25.3541 52.3207 25.3541C49.5643 25.3541 46.9207 26.4494 44.9713 28.3992L41.1063 32.2663C41.1009 30.8127 40.52 29.4205 39.4908 28.3945C38.4616 27.3685 37.0681 26.7923 35.6152 26.7922H21.1127C20.4945 26.7905 19.8821 26.9115 19.311 27.1482C18.7399 27.385 18.2214 27.7327 17.7855 28.1713L8.90174 37.0618L7.59652 35.7565C7.38594 35.546 7.10042 35.4277 6.80273 35.4277C6.50503 35.4277 6.21952 35.546 6.00894 35.7565L0.32922 41.4393C0.224853 41.5436 0.142057 41.6675 0.0855666 41.8038C0.0290762 41.9402 0 42.0863 0 42.2339C0 42.3815 0.0290762 42.5276 0.0855666 42.6639C0.142057 42.8003 0.224853 42.9241 0.32922 43.0284L16.9622 59.6705C17.0664 59.7749 17.1902 59.8577 17.3265 59.9143C17.4627 59.9708 17.6088 59.9999 17.7563 59.9999C17.9038 59.9999 18.0499 59.9708 18.1861 59.9143C18.3224 59.8577 18.4462 59.7749 18.5504 59.6705L24.2301 53.9877C24.4405 53.777 24.5588 53.4913 24.5588 53.1934C24.5588 52.8956 24.4405 52.6099 24.2301 52.3992L23.2387 51.4072L27.164 47.4798C27.2977 47.3456 27.4566 47.2392 27.6317 47.1668C27.8067 47.0944 27.9943 47.0574 28.1837 47.058H40.1386C40.923 47.06 41.7 46.9064 42.4247 46.6059C43.1494 46.3055 43.8073 45.8643 44.3604 45.3077L59.6714 29.9883C59.7757 29.8839 59.8584 29.76 59.9148 29.6236C59.9712 29.4872 60.0001 29.3411 60 29.1935C59.9999 29.0459 59.9707 28.8998 59.9141 28.7635C59.8575 28.6272 59.7746 28.5034 59.6701 28.3992ZM17.756 57.2872L2.71122 42.2342L6.80273 38.1379L21.85 53.1934L17.756 57.2872ZM42.7696 43.7186C42.0701 44.4144 41.1249 44.8066 40.1386 44.8101H28.1837C27.6991 44.8087 27.2192 44.9035 26.7715 45.089C26.3239 45.2745 25.9174 45.547 25.5758 45.8907L21.6524 49.8169L10.5066 38.6342L19.3756 29.7597C19.6036 29.5307 19.8746 29.349 20.1731 29.2254C20.4716 29.1017 20.7916 29.0385 21.1146 29.0393H35.6172C36.0706 29.0394 36.519 29.1344 36.9335 29.3184C37.3479 29.5023 37.7193 29.7711 38.0236 30.1074C38.3279 30.4437 38.5585 30.8401 38.7004 31.271C38.8423 31.7019 38.8924 32.1577 38.8475 32.6092C38.7368 33.4319 38.327 34.1851 37.6964 34.7247C37.0658 35.2643 36.2587 35.5525 35.4291 35.5344H28.3441C28.0462 35.5344 27.7606 35.6527 27.55 35.8635C27.3394 36.0742 27.2211 36.36 27.2211 36.658C27.2211 36.956 27.3394 37.2418 27.55 37.4525C27.7606 37.6632 28.0462 37.7816 28.3441 37.7816H38.3046C38.6026 37.7814 38.8883 37.663 39.099 37.4522L46.5595 29.9883C47.9501 28.597 49.7966 27.7558 51.7584 27.6198C53.7203 27.4837 55.6651 28.062 57.2342 29.248L42.7696 43.7186Z" fill="white"/>
<path d="M19.3602 17.3355H36.4436L42.6682 20.9823C42.8388 21.0821 43.0328 21.135 43.2305 21.1357C43.4281 21.1365 43.6225 21.0851 43.7939 20.9867C43.9653 20.8883 44.1078 20.7464 44.2069 20.5753C44.306 20.4042 44.3583 20.2099 44.3584 20.0122V13.7785C44.3584 13.7522 44.3584 13.7258 44.3584 13.6995C44.3584 13.6732 44.3584 13.6392 44.3584 13.609V3.72391C44.3571 2.73669 43.9645 1.79029 43.2668 1.09221C42.5691 0.394135 41.6232 0.00135888 40.6365 0H19.3602C18.3735 0.00118939 17.4275 0.393911 16.7298 1.09202C16.032 1.79013 15.6395 2.73664 15.6383 3.72391V13.6115C15.6395 14.5988 16.032 15.5453 16.7298 16.2434C17.4275 16.9416 18.3735 17.3343 19.3602 17.3355ZM17.8843 3.72391C17.8843 3.33226 18.0398 2.95665 18.3166 2.67971C18.5934 2.40277 18.9688 2.24719 19.3602 2.24719H40.6391C41.0305 2.24719 41.4059 2.40277 41.6827 2.67971C41.9595 2.95665 42.115 3.33226 42.115 3.72391V13.5628C42.1086 13.6103 42.1028 13.6571 42.0996 13.7046C42.0941 13.7923 42.0993 13.8802 42.115 13.9666V18.0514L37.3151 15.2404C37.1434 15.1393 36.9477 15.0861 36.7485 15.0863H19.3602C18.9688 15.0863 18.5934 14.9308 18.3166 14.6538C18.0398 14.3769 17.8843 14.0013 17.8843 13.6096V3.72391Z" fill="white"/>
<path d="M30.2801 10.2408C30.6767 10.2408 31.0644 10.1231 31.3942 9.90261C31.724 9.68214 31.981 9.36878 32.1328 9.00216C32.2846 8.63553 32.3243 8.2321 32.2469 7.8429C32.1695 7.45369 31.9785 7.09618 31.6981 6.81557C31.4176 6.53497 31.0603 6.34388 30.6713 6.26646C30.2823 6.18904 29.8791 6.22878 29.5127 6.38064C29.1463 6.5325 28.8331 6.78967 28.6127 7.11962C28.3924 7.44958 28.2748 7.8375 28.2748 8.23433C28.2755 8.76626 28.487 9.2762 28.8629 9.65233C29.2388 10.0285 29.7485 10.2401 30.2801 10.2408ZM30.2801 7.99356C30.3277 7.99356 30.3742 8.00768 30.4138 8.03414C30.4534 8.06059 30.4842 8.0982 30.5024 8.14219C30.5206 8.18619 30.5254 8.2346 30.5161 8.2813C30.5068 8.32801 30.4839 8.37091 30.4503 8.40458C30.4166 8.43825 30.3737 8.46118 30.3271 8.47047C30.2804 8.47976 30.232 8.475 30.188 8.45677C30.1441 8.43855 30.1065 8.40769 30.08 8.3681C30.0536 8.3285 30.0395 8.28195 30.0395 8.23433C30.0395 8.17047 30.0648 8.10923 30.11 8.06408C30.1551 8.01893 30.2163 7.99356 30.2801 7.99356Z" fill="white"/>
<path d="M36.6574 10.2408C37.054 10.2408 37.4417 10.1231 37.7715 9.90261C38.1013 9.68214 38.3583 9.36878 38.5101 9.00216C38.6618 8.63553 38.7015 8.2321 38.6242 7.8429C38.5468 7.45369 38.3558 7.09618 38.0754 6.81557C37.7949 6.53497 37.4376 6.34388 37.0486 6.26646C36.6596 6.18904 36.2564 6.22878 35.89 6.38064C35.5235 6.5325 35.2103 6.78967 34.99 7.11962C34.7696 7.44958 34.652 7.8375 34.652 8.23433C34.6527 8.76626 34.8642 9.2762 35.2401 9.65233C35.6161 10.0285 36.1257 10.2401 36.6574 10.2408ZM36.6574 7.99356C36.705 7.99356 36.7515 8.00768 36.7911 8.03414C36.8306 8.06059 36.8615 8.0982 36.8797 8.14219C36.8979 8.18619 36.9027 8.2346 36.8934 8.2813C36.8841 8.32801 36.8612 8.37091 36.8275 8.40458C36.7939 8.43825 36.751 8.46118 36.7043 8.47047C36.6576 8.47976 36.6093 8.475 36.5653 8.45677C36.5213 8.43855 36.4837 8.40769 36.4573 8.3681C36.4308 8.3285 36.4167 8.28195 36.4167 8.23433C36.4167 8.17047 36.4421 8.10923 36.4872 8.06408C36.5323 8.01893 36.5935 7.99356 36.6574 7.99356Z" fill="white"/>
<path d="M23.9035 10.2408C24.3001 10.2408 24.6878 10.1231 25.0176 9.90261C25.3474 9.68214 25.6044 9.36878 25.7562 9.00216C25.9079 8.63553 25.9477 8.2321 25.8703 7.8429C25.7929 7.45369 25.6019 7.09618 25.3215 6.81557C25.041 6.53497 24.6837 6.34388 24.2947 6.26646C23.9057 6.18904 23.5025 6.22878 23.1361 6.38064C22.7697 6.5325 22.4565 6.78967 22.2361 7.11962C22.0158 7.44958 21.8982 7.8375 21.8982 8.23433C21.8988 8.76626 22.1103 9.2762 22.4863 9.65233C22.8622 10.0285 23.3719 10.2401 23.9035 10.2408ZM23.9035 7.99356C23.9511 7.99356 23.9976 8.00768 24.0372 8.03414C24.0768 8.06059 24.1076 8.0982 24.1258 8.14219C24.144 8.18619 24.1488 8.2346 24.1395 8.2813C24.1302 8.32801 24.1073 8.37091 24.0736 8.40458C24.04 8.43825 23.9971 8.46118 23.9504 8.47047C23.9038 8.47976 23.8554 8.475 23.8114 8.45677C23.7674 8.43855 23.7298 8.40769 23.7034 8.3681C23.677 8.3285 23.6629 8.28195 23.6629 8.23433C23.6629 8.17047 23.6882 8.10923 23.7333 8.06408C23.7785 8.01893 23.8397 7.99356 23.9035 7.99356Z" fill="white"/>
</svg>
