<svg width="60" height="60" viewBox="0 0 60 60" fill="none" xmlns="http://www.w3.org/2000/svg">
<path d="M45.2832 23.5363L12.41 56.4096C9.98236 58.8373 6.03162 58.8373 3.60302 56.4095C1.21615 54.0226 1.13939 50.0663 3.43533 47.7702L9.89236 41.3143C10.0572 41.1496 10.1498 40.9248 10.1498 40.6917C10.1498 40.2062 9.7563 39.8134 9.27091 39.8134C9.02177 39.8134 8.79665 39.9174 8.63669 40.0841L2.19244 46.5272C0.754311 47.9653 -0.0241653 49.9224 0.000444035 52.0374C0.0251706 54.1616 0.863178 56.1558 2.36013 57.6527C3.9172 59.2091 5.96201 59.9874 8.00693 59.9874C10.0519 59.9874 12.0965 59.209 13.6529 57.6526L46.5262 24.7794C46.8695 24.4361 46.8695 23.8797 46.5262 23.5364C46.183 23.1933 45.6265 23.1933 45.2832 23.5363Z" fill="white"/>
<path d="M35.8041 22.9657L31.2817 27.4881C30.9384 27.8315 30.9384 28.3879 31.2817 28.7311C31.4532 28.9027 31.6782 28.9885 31.9031 28.9885C32.128 28.9885 32.353 28.9027 32.5246 28.7311L37.0469 24.2087C37.3902 23.8654 37.3902 23.309 37.0469 22.9657C36.7037 22.6226 36.1472 22.6226 35.8041 22.9657Z" fill="white"/>
<path d="M28.6017 30.1681L27.4292 31.3406C27.086 31.6839 27.086 32.2403 27.4292 32.5836C27.6008 32.7551 27.8258 32.8409 28.0507 32.8409C28.2756 32.8409 28.5006 32.7551 28.6721 32.5836L29.8446 31.4111C30.1878 31.0678 30.1878 30.5113 29.8446 30.1681C29.5015 29.825 28.9449 29.825 28.6017 30.1681Z" fill="white"/>
<path d="M59.7425 12.8323L47.1804 0.270161C47.0156 0.105396 46.792 0.0128174 46.5589 0.0128174C46.3258 0.0128174 46.1022 0.105396 45.9375 0.270161L40.5777 5.62997C40.2344 5.97333 40.2344 6.52973 40.5777 6.87297L41.2122 7.50754L11.5728 37.148C11.4 37.3086 11.2918 37.5379 11.2918 37.7925C11.2918 38.2781 11.6859 38.6715 12.1713 38.6715C12.4044 38.6715 12.628 38.5789 12.7927 38.414L42.4548 8.7509L44.0594 10.3556L42.0014 12.4136C41.6581 12.757 41.6581 13.3134 42.0014 13.6566L43.5572 15.2124L39.3566 19.413L37.2982 17.3546C36.9549 17.0115 36.3984 17.0115 36.0553 17.3546L21.8182 31.5916C21.6533 31.7565 21.5607 31.9799 21.5607 32.2131C21.5607 32.4463 21.6533 32.6697 21.8182 32.8347L23.8765 34.893L11.8576 46.9122C11.3775 46.6418 10.8341 46.4971 10.2681 46.4971C9.40064 46.4971 8.58501 46.835 7.97166 47.4483L5.04044 50.3795C4.42709 50.9929 4.08923 51.8084 4.08923 52.6761C4.08923 53.5435 4.42709 54.359 5.04044 54.9725C5.6538 55.5859 6.46943 55.9237 7.33685 55.9237C8.20427 55.9237 9.0199 55.5858 9.63326 54.9725L12.5644 52.0413C13.1777 51.4279 13.5156 50.6124 13.5156 49.7449C13.5156 49.1787 13.3708 48.6352 13.1005 48.1552L25.1195 36.1362L27.178 38.1947C27.3495 38.3663 27.5745 38.4521 27.7994 38.4521C28.0243 38.4521 28.2493 38.3663 28.4209 38.1947L42.658 23.9577C42.8229 23.7929 42.9154 23.5694 42.9154 23.3362C42.9154 23.103 42.8229 22.8796 42.658 22.7146L40.5995 20.6561L44.8001 16.4555L46.3561 18.0115C46.5276 18.1831 46.7526 18.2689 46.9775 18.2689C47.2024 18.2689 47.4274 18.1831 47.599 18.0115L49.6571 15.9535L51.2615 17.5579L48.1822 20.6371C47.839 20.9805 47.839 21.5369 48.1822 21.8801C48.5254 22.2232 49.082 22.2232 49.4251 21.8801L52.5048 18.8004L53.1395 19.4351C53.3042 19.5999 53.5278 19.6925 53.7609 19.6925C53.994 19.6925 54.2176 19.5999 54.3824 19.4351L59.7422 14.0753C60.0858 13.7321 60.0858 13.1757 59.7425 12.8323ZM11.3215 50.7982L8.39025 53.7295C8.10888 54.0108 7.7347 54.1659 7.33685 54.1659C6.93888 54.1659 6.56482 54.0109 6.28345 53.7295V53.7293C6.00208 53.4481 5.84705 53.0739 5.84705 52.6761C5.84705 52.2781 6.00197 51.9039 6.28345 51.6227L9.21466 48.6913C9.49603 48.41 9.87009 48.2549 10.2681 48.2549C10.6658 48.2549 11.0396 48.4097 11.3209 48.6909C11.3211 48.691 11.3212 48.6912 11.3213 48.6915C11.3216 48.6917 11.3218 48.6918 11.3219 48.692C11.6029 48.9733 11.7577 49.3471 11.7577 49.7449C11.7579 50.1427 11.6029 50.5169 11.3215 50.7982ZM27.7995 36.3302L23.6826 32.2132L36.6767 19.2191L38.7295 21.2719C38.7314 21.2739 38.733 21.2759 38.7349 21.2779C38.7368 21.2798 38.7389 21.2814 38.7409 21.2833L40.7938 23.3362L27.7995 36.3302ZM49.8251 13.6346L46.3782 10.1877L50.4951 6.07083L53.942 9.51766L49.8251 13.6346ZM46.5589 2.13461L49.2521 4.82782L45.1352 8.94473L42.442 6.25153L46.5589 2.13461ZM46.9776 16.1471L43.8657 13.0352L45.3023 11.5984L48.4143 14.7104L46.9776 16.1471ZM53.7613 17.5708L51.0681 14.8776L55.185 10.7607L57.8782 13.4539L53.7613 17.5708Z" fill="white"/>
</svg>
