<svg width="60" height="60" viewBox="0 0 60 60" fill="none" xmlns="http://www.w3.org/2000/svg">
<g clip-path="url(#clip0)">
<path d="M60 22.5421V18.3737C60 17.2476 59.0836 16.3312 57.9575 16.3312C57.236 16.3312 56.5581 16.0506 56.0481 15.5415C55.5382 15.0307 55.2571 14.3523 55.2571 13.6313V6.2915C55.2571 5.14847 54.3274 4.21875 53.1844 4.21875H50.6845C49.5415 4.21875 48.6118 5.14893 48.6118 6.2915V10.5876C48.6118 13.2527 46.4864 15.4564 43.8744 15.5003C42.5757 15.5205 41.3416 15.0311 40.4132 14.1179C39.4844 13.2042 38.9731 11.9838 38.9731 10.6815V6.2915C38.9731 5.14847 38.0429 4.21875 36.8999 4.21875H34.4005C33.2574 4.21875 32.3273 5.14893 32.3273 6.2915V8.94012C32.3273 9.42581 32.7209 9.81903 33.2062 9.81903C33.6919 9.81903 34.0851 9.42581 34.0851 8.94012V6.2915C34.0851 6.11801 34.2265 5.97656 34.4005 5.97656H36.8999C37.0738 5.97656 37.2153 6.11801 37.2153 6.2915V10.6815C37.2153 12.459 37.9134 14.1243 39.1805 15.3708C40.4475 16.6173 42.1248 17.2838 43.9037 17.2581C47.4692 17.1977 50.3696 14.2053 50.3696 10.5876V6.2915C50.3696 6.11801 50.511 5.97656 50.6845 5.97656H53.1844C53.3578 5.97656 53.4993 6.11801 53.4993 6.2915V13.6313C53.4993 14.821 53.9626 15.9407 54.8053 16.7844C55.648 17.6257 56.7673 18.089 57.9575 18.089C58.1145 18.089 58.2422 18.2167 58.2422 18.3737V22.0052L43.792 28.938L29.3427 22.0056V18.3737C29.3427 18.2767 29.388 18.2108 29.4278 18.1709C29.4585 18.1403 29.5248 18.089 29.6274 18.089C32.0856 18.089 34.0851 16.0895 34.0851 13.6313V12.4557C34.0851 11.9705 33.6919 11.5768 33.2062 11.5768C32.7209 11.5768 32.3273 11.9705 32.3273 12.4557V13.6313C32.3273 15.1199 31.116 16.3312 29.6274 16.3312C29.0799 16.3312 28.5663 16.544 28.1831 16.9295C27.7972 17.3154 27.5848 17.8285 27.5848 18.3737V22.5284C27.5844 22.5481 27.5844 22.5677 27.5848 22.5874V37.1915L23.0649 39.9005C22.4281 39.5352 21.6994 39.3384 20.9601 39.3384H15.7159V24.1553H20.9601C23.2896 24.1553 25.1848 22.2601 25.1848 19.9306C25.1848 17.601 23.2896 15.7059 20.9601 15.7059H20.0395V14.7459C20.0395 12.8439 18.4918 11.2967 16.5898 11.2967H15.7159V9.57413C15.7159 8.57254 14.9011 7.75772 13.8995 7.75772H11.2852C10.2837 7.75772 9.46884 8.57254 9.46884 9.57413V11.2967H8.59497C6.69296 11.2967 5.14526 12.8439 5.14526 14.7459V15.7059H4.2247C3.83881 15.7059 3.45657 15.7581 3.08807 15.8606C2.6207 15.9911 2.34695 16.4758 2.47742 16.9437C2.60788 17.411 3.09219 17.6839 3.56049 17.5539C3.77518 17.4939 3.99857 17.4637 4.2247 17.4637H20.9601C22.3206 17.4637 23.427 18.5701 23.427 19.9306C23.427 21.2906 22.3206 22.397 20.9601 22.397H4.2247C2.86423 22.397 1.75781 21.2906 1.75781 19.9306C1.75781 19.791 1.76971 19.6504 1.7926 19.514C1.87363 19.0352 1.55136 18.5815 1.073 18.5005C0.594635 18.419 0.140533 18.7418 0.0595092 19.2206C0.0201416 19.454 0 19.693 0 19.9306C0 22.2601 1.89514 24.1553 4.2247 24.1553H9.46884V39.3384H4.2247C1.89514 39.3384 0 41.2335 0 43.5631C0 44.6901 0.438995 45.7512 1.23779 46.5514C2.03659 47.3488 3.09769 47.7878 4.2247 47.7878H5.14572V48.7473C5.14572 50.6497 6.69296 52.1974 8.59451 52.1974H9.46884V53.92C9.46884 54.9216 10.2837 55.7364 11.2852 55.7364H13.8995C14.9011 55.7364 15.7159 54.9216 15.7159 53.92V52.1974H15.7507C15.9325 52.4359 16.1325 52.6625 16.3509 52.8754C17.5314 54.0285 19.0627 54.6153 20.6232 54.6153H52.31C54.1603 54.6153 55.6659 53.1097 55.6659 51.259V46.0533H56.1351C58.2664 46.0533 60 44.3193 60 42.1884V22.5723C60 22.5623 60 22.5522 60 22.5421ZM11.2267 9.57413C11.2267 9.54208 11.2527 9.51553 11.2852 9.51553H13.8995C13.932 9.51553 13.9581 9.54208 13.9581 9.57413V11.2967H11.2267V9.57413ZM6.90308 15.7059V14.7459C6.90308 13.813 7.66205 13.0545 8.59497 13.0545H10.3294H10.3477H10.3656H14.8187H14.837H14.8553H16.5898C17.5227 13.0545 18.2817 13.813 18.2817 14.7459V15.7059H6.90308ZM36.8582 35.2066C37.251 35.2066 37.6044 35.4547 37.7385 35.8237C38.7589 38.6389 41.4565 40.5304 44.4502 40.5304C47.5081 40.5304 50.2245 38.5854 51.2091 35.6905C51.3075 35.4012 51.5794 35.2066 51.8852 35.2066H52.4313C53.2457 35.2066 53.9081 35.869 53.9081 36.6833V47.7557H41.7398L38.8568 43.6249C38.5794 43.2271 38.031 43.1296 37.6332 43.4074C37.2354 43.6848 37.1379 44.2328 37.4153 44.631L39.5961 47.7557H37.4872L32.0581 39.9751L33.5454 39.0834L35.4044 41.748C35.5756 41.993 35.8484 42.1243 36.1263 42.1243C36.2997 42.1243 36.4751 42.0731 36.628 41.9659C37.0262 41.6881 37.1237 41.1401 36.8463 40.7423L34.9754 38.0608C35.4726 37.5005 35.7614 36.7671 35.7614 36.0017V35.2066H36.8582ZM33.2954 47.7557L29.1023 41.7467L30.5466 40.881L35.3435 47.7557H33.2954ZM29.0424 47.7557L26.1035 43.5443L27.5908 42.653L31.1517 47.7562H29.0424V47.7557ZM20.9024 43.2458C20.9473 43.3273 20.9985 43.4061 21.0558 43.4807C21.6412 44.2424 22.5284 44.6503 23.4315 44.6503C23.8165 44.6503 24.2047 44.5761 24.5737 44.4232L26.8991 47.7557H16.3271C16.5431 46.5202 17.2893 45.4115 18.3815 44.7574L20.9024 43.2458ZM34.0036 35.3943V36.0022C34.0036 36.4641 33.7601 36.8985 33.3673 37.1407C33.3517 37.1498 33.3362 37.159 33.3211 37.169L30.3703 38.9374C30.3552 38.9461 30.3401 38.9552 30.325 38.9648L27.4004 40.7176C27.3949 40.7208 27.3889 40.7245 27.3834 40.7281L24.0656 42.7167C23.5268 43.0399 22.8323 42.9076 22.4492 42.4095C22.4446 42.4036 22.4304 42.3848 22.4364 42.3541C22.4414 42.3271 22.4574 42.3148 22.4657 42.3093L23.4723 41.7059C23.4837 41.6995 23.4956 41.6922 23.5071 41.6849L33.9642 35.4167C33.9775 35.4089 33.9903 35.4016 34.0036 35.3943ZM11.2267 24.1553H13.9581V39.3384H11.2267V24.1553ZM6.90353 48.7477V47.7878H11.8689C12.3541 47.7878 12.7478 47.3946 12.7478 46.9089C12.7478 46.4236 12.3541 46.03 11.8689 46.03H4.2247C3.56644 46.03 2.94662 45.7736 2.48062 45.3085C2.01462 44.8412 1.75781 44.2213 1.75781 43.5631C1.75781 42.2031 2.86423 41.0962 4.2247 41.0962H20.9601C20.9958 41.0962 21.031 41.0971 21.0663 41.0985L17.4779 43.2495C15.6441 44.3486 14.5052 46.3591 14.5052 48.4973C14.5052 49.0814 14.5876 49.6468 14.7409 50.1819C14.7427 50.1888 14.745 50.1956 14.7469 50.2025C14.7482 50.2071 14.7496 50.2116 14.751 50.2162C14.7725 50.2913 14.7958 50.3654 14.8206 50.4396H8.59451C7.66205 50.4396 6.90353 49.6806 6.90353 48.7477ZM13.9581 53.92C13.9581 53.952 13.9316 53.9786 13.8995 53.9786H11.2852C11.2532 53.9786 11.2267 53.952 11.2267 53.92V52.1974H13.9581V53.92ZM53.9081 51.259C53.9081 52.1407 53.1912 52.8575 52.3096 52.8575C32.0361 52.8575 20.6003 52.8584 20.5069 52.8561C18.5037 52.8035 16.8329 51.3931 16.3824 49.5135H28.5622C28.5699 49.514 28.5773 49.514 28.5851 49.514C28.5928 49.514 28.6006 49.514 28.6084 49.5135H32.8148C32.8226 49.514 32.8299 49.514 32.8377 49.514C32.8455 49.514 32.8532 49.514 32.861 49.5135H37.0065C37.0143 49.514 37.0221 49.514 37.0294 49.514C37.0372 49.514 37.045 49.514 37.0528 49.5135H41.2592C41.2669 49.514 41.2743 49.514 41.282 49.514C41.2898 49.514 41.2976 49.514 41.3054 49.5135H53.9081V51.259ZM56.1351 44.2955H55.6659V36.6833C55.6659 34.8999 54.2148 33.4488 52.4313 33.4488H51.8852C50.8264 33.4488 49.8862 34.1222 49.5447 35.1242C48.8026 37.3064 46.7551 38.7721 44.4502 38.7721C42.193 38.7721 40.1601 37.3466 39.3906 35.2249C39.0056 34.1624 37.988 33.4488 36.8578 33.4488C34.8985 33.4991 34.1519 33.2565 33.0606 33.9093L29.3422 36.1377V23.9552L43.4116 30.7054C43.532 30.7631 43.662 30.7919 43.792 30.7919C43.922 30.7919 44.052 30.7631 44.1719 30.7054L58.2417 23.9548V42.1884C58.2422 43.3502 57.2969 44.2955 56.1351 44.2955Z" fill="white"/>
<path d="M42.8755 19.7045H42.285C41.7993 19.7045 41.4061 20.0977 41.4061 20.5834C41.4061 21.0686 41.7993 21.4623 42.285 21.4623H42.4709V24.5023H42.3637C41.8781 24.5023 41.4848 24.8955 41.4848 25.3812C41.4848 25.8669 41.8781 26.2601 42.3637 26.2601H44.3358C44.8215 26.2601 45.2147 25.8669 45.2147 25.3812C45.2147 24.8955 44.8215 24.5023 44.3358 24.5023H44.2287V21.0576C44.2287 20.3115 43.6217 19.7045 42.8755 19.7045Z" fill="white"/>
</g>
<defs>
<clipPath id="clip0">
<rect width="60" height="60" fill="white"/>
</clipPath>
</defs>
</svg>
