<svg width="60" height="60" viewBox="0 0 60 60" fill="none" xmlns="http://www.w3.org/2000/svg">
<path d="M12.542 48.64C12.1949 49.0078 12.0011 49.4942 12 50V58C12 59.1045 12.8955 60 14 60H25C26.1046 60 27 59.1045 27 58V50C27 48.8954 26.1046 48 25 48V46.139C25.0307 43.7706 24.258 41.4618 22.808 39.589C21.9579 38.4709 20.7994 37.6258 19.475 37.158C17.3689 36.273 15.4319 35.03 13.75 33.484C12.1889 32.1982 9.97104 32.0829 8.28502 33.2L6.12202 28.1459C5.66204 27.104 4.68112 26.3866 3.54876 26.2639C2.41641 26.1413 1.30464 26.6321 0.632263 27.5514C-0.0401152 28.4708 -0.170958 29.679 0.289021 30.721L4.20802 39.342C4.73673 40.509 5.47225 41.5708 6.37902 42.476L12.542 48.64ZM25 58H14V50H25V58ZM2.10902 29.8939C1.94177 29.526 1.9729 29.0983 2.19166 28.7584C2.41042 28.4186 2.78684 28.2131 3.19102 28.2129C3.66667 28.2126 4.09653 28.4964 4.28302 28.9339L6.52002 34.151C7.11404 35.5429 7.97027 36.8075 9.04202 37.8759L13.61 42.445C13.8611 42.7049 14.2329 42.8092 14.5825 42.7176C14.9322 42.6261 15.2052 42.3531 15.2967 42.0035C15.3882 41.6538 15.284 41.282 15.024 41.0309L10.456 36.462C9.99669 36.0037 9.58368 35.5013 9.22302 34.962C10.1834 34.223 11.5269 34.2454 12.462 35.0159C14.3314 36.7315 16.4919 38.0996 18.842 39.056C19.7997 39.4044 20.6353 40.0239 21.247 40.839C22.4124 42.3573 23.0302 44.2251 23 46.139V48H14.731L7.79302 41.062C7.05616 40.3261 6.45823 39.4633 6.02802 38.515L2.10902 29.8939Z" fill="white"/>
<path d="M22 53H21C20.4477 53 20 53.4477 20 54C20 54.5523 20.4477 55 21 55H22C22.5523 55 23 54.5523 23 54C23 53.4477 22.5523 53 22 53Z" fill="white"/>
<path d="M56.8091 26.213C55.5333 26.2122 54.3803 26.9729 53.8791 28.146L51.7211 33.181C50.0292 32.0695 47.8103 32.1912 46.2501 33.481C44.5682 35.0271 42.6312 36.2701 40.5251 37.155C39.2007 37.6229 38.0422 38.4679 37.1921 39.586C35.7414 41.4597 34.9687 43.7697 35.0001 46.139V48C33.8955 48 33.0001 48.8955 33.0001 50V58C33.0001 59.1046 33.8955 60 35.0001 60H46.0001C47.1046 60 48.0001 59.1046 48.0001 58V50C47.999 49.4943 47.8051 49.0079 47.4581 48.64L53.6211 42.476C54.5278 41.5709 55.2633 40.5091 55.7921 39.342L59.7111 30.721C60.1603 29.7346 60.0775 28.5874 59.491 27.6758C58.9046 26.7642 57.895 26.2131 56.8111 26.213H56.8091ZM46.0001 58H35.0001V50H46.0001V58ZM57.8911 29.894L53.9721 38.515C53.5418 39.4634 52.9439 40.3262 52.2071 41.062L45.2691 48H37.0001V46.139C36.9699 44.2252 37.5877 42.3574 38.7531 40.839C39.3636 40.0249 40.1973 39.4055 41.1531 39.056C43.5036 38.1 45.6645 36.7318 47.5341 35.016C48.4682 34.2396 49.8155 34.2134 50.7791 34.953C50.4173 35.4963 50.0023 36.0022 49.5401 36.463L44.9721 41.032C44.5931 41.4244 44.5985 42.0481 44.9842 42.4338C45.37 42.8196 45.9937 42.825 46.3861 42.446L50.9541 37.877C52.0258 36.8086 52.882 35.5439 53.4761 34.152L55.7131 28.934C55.9001 28.497 56.3297 28.2137 56.8051 28.214C57.2092 28.2142 57.5857 28.4196 57.8044 28.7595C58.0232 29.0993 58.0543 29.5271 57.8871 29.895L57.8911 29.894Z" fill="white"/>
<path d="M39 53H38C37.4477 53 37 53.4477 37 54C37 54.5523 37.4477 55 38 55H39C39.5523 55 40 54.5523 40 54C40 53.4477 39.5523 53 39 53Z" fill="white"/>
<path d="M41.074 3.56621e-06C36.6845 -0.026529 32.5553 2.07981 30 5.649C27.4447 2.07981 23.3155 -0.026529 18.926 3.56621e-06C10.953 3.56621e-06 6 5.053 6 13.188C5.97914 15.1699 6.31796 17.1391 7 19H2C1.44772 19 1 19.4477 1 20C1 20.5523 1.44772 21 2 21H7.916C9.35962 23.3613 11.1992 25.4562 13.354 27.193C13.866 27.649 14.363 28.093 14.828 28.536C18.228 31.777 28.918 40.412 29.372 40.778C29.7384 41.0737 30.2616 41.0737 30.628 40.778C31.082 40.412 41.773 31.778 45.172 28.536C45.637 28.093 46.134 27.649 46.646 27.193C48.8008 25.4562 50.6404 23.3613 52.084 21H58C58.5523 21 59 20.5523 59 20C59 19.4477 58.5523 19 58 19H53.005C53.6853 17.1388 54.0225 15.1696 54 13.188C54 5.053 49.047 3.56621e-06 41.074 3.56621e-06ZM8 13.188C8 6.182 12.084 2 18.926 2C23.1541 1.98661 27.0558 4.27067 29.114 7.964C29.3036 8.27134 29.6389 8.45848 30 8.45848C30.3611 8.45848 30.6964 8.27134 30.886 7.964C32.9442 4.27067 36.8459 1.98661 41.074 2C47.916 2 52 6.182 52 13.188C52.0301 15.1862 51.6329 17.1678 50.835 19H45C44.5942 19.0002 44.2288 19.2455 44.075 19.621L42.961 15.721C42.8374 15.2957 42.4489 15.0023 42.006 15H42C41.5582 15 41.1688 15.2898 41.042 15.713L39.162 21.981L36.978 11.791C36.8808 11.336 36.4827 11.0082 36.0175 11C35.5523 10.9919 35.143 11.3057 35.03 11.757L33.219 19H28C27.5942 19.0002 27.2288 19.2455 27.075 19.621L25.961 15.721C25.8374 15.2957 25.4489 15.0023 25.006 15C24.5557 14.9773 24.1521 15.2758 24.042 15.713L22.162 21.981L19.978 11.791C19.8808 11.3358 19.4824 11.0079 19.017 11C18.5491 10.9833 18.1351 11.3008 18.03 11.757L16.219 19H9.165C8.36714 17.1678 7.96994 15.1862 8 13.188ZM45.314 25.7C44.786 26.172 44.272 26.63 43.791 27.089C40.918 29.83 32.39 36.775 30 38.713C27.61 36.775 19.083 29.83 16.209 27.089C15.728 26.63 15.214 26.172 14.686 25.7C13.0199 24.3281 11.5362 22.7486 10.271 21H17C17.4587 21 17.8585 20.6879 17.97 20.243L18.925 16.423L21.025 26.209C21.1206 26.6557 21.5066 26.9808 21.963 26.999C22.4183 27.013 22.8272 26.7219 22.963 26.287L24.982 19.558L26.044 23.275C26.1645 23.6966 26.5456 23.9906 26.984 24C27.4181 23.9959 27.8043 23.7235 27.954 23.316L28.721 21H34C34.4587 21 34.8585 20.6879 34.97 20.243L35.925 16.423L38.025 26.209C38.1206 26.6557 38.5066 26.9808 38.963 26.999H39C39.4418 26.999 39.8312 26.7092 39.958 26.286L41.977 19.557L43.039 23.274C43.1595 23.6956 43.5406 23.9896 43.979 23.999C44.4118 23.9909 44.7961 23.72 44.949 23.315L45.721 21H49.729C48.4638 22.7486 46.9801 24.3281 45.314 25.7Z" fill="white"/>
</svg>
