<svg width="60" height="54" viewBox="0 0 60 54" fill="none" xmlns="http://www.w3.org/2000/svg">
<path d="M59.9718 42.5789L59.7429 41.3435C59.597 40.5541 58.9077 39.9812 58.1039 39.9812C58.003 39.9812 57.9013 39.9905 57.8012 40.0089L53.1419 40.8648L55.2519 39.4542C55.8049 39.0846 56.0844 38.4235 55.9638 37.7676C55.9303 37.5879 55.8675 37.4155 55.7766 37.2542L55.138 36.1234C54.9192 35.735 54.5461 35.4463 54.1154 35.3319C53.9045 35.2757 53.684 35.2632 53.4688 35.2912C53.7038 33.9944 53.8249 32.6699 53.8249 31.3217C53.8249 30.7234 53.4652 30.2086 52.9513 29.98C53.6228 28.383 53.6686 26.5546 53.0049 24.8803C52.9511 24.7441 52.8712 24.6226 52.7677 24.519C52.665 24.4163 52.5449 24.337 52.4086 24.2823C51.6133 23.9655 50.7774 23.805 49.9241 23.805C49.815 23.805 49.7064 23.8078 49.5981 23.8129C49.4764 21.3599 47.4461 19.4015 44.9676 19.4015C44.6412 19.4015 44.323 19.4362 44.0156 19.5009C44.2291 18.2236 44.1033 16.8873 43.6059 15.6327C43.5524 15.4948 43.4722 15.371 43.3631 15.2601C43.2581 15.1552 43.1349 15.0742 42.9983 15.0199C42.1415 14.6787 41.241 14.5057 40.3218 14.5057C38.9371 14.5057 37.6126 14.895 36.4691 15.6187C36.0513 14.4086 35.3624 13.2724 34.3998 12.3076C34.1178 12.0252 33.7428 11.8696 33.3438 11.8696C32.9448 11.8696 32.5698 12.0252 32.2875 12.3079L28.0321 16.573C27.2446 15.8706 26.2083 15.4507 25.0835 15.4507C24.8283 15.4507 24.5706 15.4731 24.3176 15.5171C23.4008 15.6768 22.5572 16.1255 21.9105 16.7826C21.0811 16.3825 20.1311 16.2459 19.2181 16.4048C19.0172 16.4398 18.8223 16.489 18.6332 16.549V13.2623C18.6332 10.999 16.8141 9.15435 14.5639 9.11545V7.25147C15.2527 7.13229 15.7786 6.53194 15.7786 5.8096V1.5863C15.7786 0.778645 15.1216 0.12146 14.3138 0.12146H7.16646C6.35869 0.12146 5.70162 0.778645 5.70162 1.5863V5.8096C5.70162 6.53194 6.22755 7.13229 6.91638 7.25147V9.11521C4.66615 9.154 2.84718 10.9986 2.84718 13.2621V38.9139C1.09242 40.4986 0 42.7098 0 45.155C0 49.9651 4.22166 53.8784 9.41094 53.8784L44.589 53.8681C45.7897 53.8677 46.9189 53.34 47.6869 52.4205C48.435 51.5254 48.753 50.3628 48.5698 49.2163L55.596 50.479C55.6933 50.4964 55.7929 50.5053 55.8917 50.5053C56.242 50.5053 56.5778 50.3977 56.8621 50.1945C57.2276 49.9334 57.475 49.5293 57.5409 49.086L57.7313 47.809C57.7587 47.626 57.7556 47.4418 57.7222 47.2612C57.6013 46.6083 57.1041 46.0902 56.4554 45.9416L53.9789 45.3735L58.6337 44.5184C59.0727 44.4377 59.4536 44.1913 59.7062 43.8244C59.9584 43.4584 60.0526 43.0161 59.9718 42.5789ZM49.9241 25.5625C50.4532 25.5625 50.9734 25.6463 51.4736 25.8114C51.9205 27.1724 51.7532 28.6404 51.0534 29.8531H48.6857L49.4412 29.0958C49.7841 28.7522 49.7834 28.1957 49.4397 27.8528C49.096 27.5099 48.5395 27.5105 48.1968 27.8542L47.7971 28.2549C47.6097 27.6379 47.2825 27.0855 46.8524 26.6323C47.7248 25.9396 48.7956 25.5625 49.9241 25.5625ZM44.9676 21.1591C46.5549 21.1591 47.8462 22.4543 47.8462 24.0462C47.8462 24.0758 47.8448 24.105 47.844 24.1343C46.9175 24.4355 46.0635 24.9389 45.3352 25.6224C45.2193 25.5785 45.1018 25.5377 44.9811 25.5043C44.724 24.1154 43.788 23.0021 42.5516 22.4822C43.0647 21.6872 43.9551 21.1591 44.9676 21.1591ZM40.3217 16.2633C40.9187 16.2633 41.5053 16.3598 42.0706 16.5508C42.5249 17.9018 42.4321 19.3529 41.8532 20.6099C41.3773 21.0433 40.9912 21.5742 40.7273 22.1709C40.5704 22.18 40.4135 22.1974 40.2584 22.2243C39.5697 22.3442 38.9275 22.6431 38.3901 23.0764C38.2068 22.7413 37.9824 22.432 37.7253 22.1536L39.7408 20.1335C40.0837 19.7899 40.083 19.2334 39.7393 18.8906C39.3957 18.5477 38.8392 18.5483 38.4963 18.892L36.2934 21.0999C35.8742 20.9018 35.4212 20.764 34.9451 20.6995C35.1507 19.6507 35.6597 18.6624 36.4469 17.8733C37.4827 16.835 38.8589 16.2633 40.3217 16.2633ZM33.587 29.8531H32.8251C32.6968 29.5266 32.3796 29.2952 32.0075 29.2952C31.6355 29.2952 31.3182 29.5267 31.1899 29.8531H30.2937C30.5018 29.5142 30.4597 29.0651 30.1659 28.7719C29.8223 28.429 29.2658 28.4296 28.9229 28.7732L28.0945 29.6034C28.0201 29.6779 27.9629 29.7629 27.9209 29.8531H26.132C25.462 28.825 25.0532 27.6115 25.0048 26.3061H38.9484C38.9 27.6115 38.4911 28.825 37.8212 29.8531H35.9597C35.9177 29.7629 35.8603 29.6778 35.786 29.6033L34.9577 28.7731C34.6147 28.4296 34.0584 28.4287 33.7148 28.7717C33.4208 29.0649 33.3787 29.5141 33.587 29.8531ZM31.5429 24.5483C31.8742 23.3205 32.9941 22.4145 34.3214 22.4145C35.6488 22.4145 36.7687 23.3206 37.1 24.5483H31.5429ZM33.3402 13.7412C34.1762 14.6447 34.729 15.7174 35 16.845C34.5513 17.3326 34.1785 17.8714 33.8845 18.4448C33.751 18.363 33.5946 18.3151 33.4267 18.3151H32.2555C31.7701 18.3151 31.3766 18.7086 31.3766 19.194C31.3766 19.6794 31.7701 20.0729 32.2555 20.0729H33.2829C33.2251 20.3156 33.1802 20.5612 33.1476 20.8087C32.7987 20.9004 32.4654 21.0309 32.1534 21.1971C31.5676 20.1861 30.5975 19.4327 29.4482 19.1305C29.4478 19.128 29.4473 19.1256 29.4469 19.1231C29.378 18.7254 29.2577 18.348 29.0938 17.9973L33.3402 13.7412ZM17.4522 21.6719C17.4006 21.5278 17.3616 21.3799 17.3359 21.2315C17.0839 19.7783 18.0636 18.3899 19.5194 18.1364C19.6729 18.1097 19.8289 18.0961 19.9829 18.0961C20.5619 18.0961 21.1152 18.2808 21.5829 18.6301C21.7764 18.7747 22.0211 18.8332 22.2592 18.7919C22.4973 18.7506 22.7079 18.6131 22.8415 18.4117C23.2541 17.7893 23.8854 17.3763 24.619 17.2486C24.7729 17.2217 24.9292 17.2083 25.0835 17.2083C26.3857 17.2083 27.4924 18.1399 27.7149 19.4237C27.7404 19.5708 27.7535 19.724 27.7538 19.8793C27.7546 20.3342 28.1025 20.7134 28.5558 20.7533C29.5384 20.8397 30.3749 21.4581 30.7627 22.3292C30.2435 22.9523 29.8836 23.7131 29.747 24.5483H24.7347C24.1115 24.5483 23.5767 24.933 23.3537 25.4775C22.251 24.7264 20.9514 24.3218 19.5895 24.3218C18.7362 24.3218 17.9003 24.4824 17.1044 24.7993C16.9694 24.8532 16.8487 24.9328 16.7458 25.0357C16.6415 25.14 16.5615 25.2622 16.509 25.3962C16.3067 25.9064 16.1718 26.4308 16.0989 26.9585C15.7839 26.5999 15.562 26.154 15.4753 25.6536C15.2685 24.4611 15.8928 23.2738 16.9928 22.7661C17.4063 22.5753 17.6056 22.1005 17.4522 21.6719ZM20.0723 29.6127L20.312 29.8531H18.2011C17.7272 28.7537 17.6553 27.5022 18.04 26.3285C18.5409 26.1631 19.0608 26.0794 19.5895 26.0794C20.9138 26.0794 22.1596 26.5971 23.0972 27.5368C23.2219 27.6618 23.338 27.7928 23.4471 27.9282C23.5961 28.6025 23.8249 29.2467 24.1198 29.853H22.7952L21.3167 28.371C20.9737 28.0276 20.4171 28.0266 20.0738 28.3696C19.7301 28.7126 19.7294 29.2692 20.0723 29.6127ZM16.3293 29.8531H13.1961C13.3358 29.0017 13.8479 28.276 14.5587 27.848C14.9796 28.4118 15.5288 28.8677 16.1616 29.1765C16.2064 29.4045 16.2613 29.6306 16.3293 29.8531ZM7.45942 1.87927H14.0208V5.51663H7.45942V1.87927ZM12.8061 7.27444V9.11346H8.6743V7.27444H12.8061ZM4.6051 16.8265H10.3125C10.798 16.8265 11.1914 16.433 11.1914 15.9476C11.1914 15.4622 10.798 15.0687 10.3125 15.0687H4.6051V13.2621C4.6051 11.9438 5.67431 10.8713 6.98857 10.8713H14.4918C15.8062 10.8713 16.8754 11.9438 16.8754 13.2621V15.0687H15.2343C14.7488 15.0687 14.3554 15.4622 14.3554 15.9476C14.3554 16.433 14.7488 16.8265 15.2343 16.8265H16.8754V17.6066C15.8684 18.5939 15.3454 20.0417 15.6037 21.5311C15.6042 21.534 15.6047 21.537 15.6052 21.5401C14.1952 22.5075 13.4439 24.2273 13.7431 25.9538C13.7606 26.0546 13.7825 26.1537 13.8064 26.2518C13.3673 26.4939 12.973 26.8066 12.635 27.1724H4.6051V16.8265ZM4.60498 28.9301H11.6144C11.5211 29.2264 11.4553 29.5347 11.4232 29.8531H11.275C10.4661 29.8531 9.80785 30.5118 9.80785 31.3215C9.80785 32.717 9.93758 34.0871 10.1889 35.4275C9.93641 35.4072 9.67742 35.3963 9.41399 35.3963C8.3511 35.3963 7.33837 35.5649 6.56271 35.8712C5.37619 36.3398 5.04818 37.005 4.97658 37.4653C4.85084 37.5279 4.72733 37.594 4.60498 37.6616V28.9301ZM15.7344 39.7272C16.0509 39.9804 16.2444 40.1957 16.3565 40.3509C16.346 40.3511 16.3349 40.3512 16.3238 40.3512C15.8263 40.3512 14.9326 40.1507 13.9162 39.5881C13.5378 39.3784 13.1892 39.1416 12.9079 38.9033C12.58 38.6255 12.0992 38.6257 11.7716 38.9035C11.4903 39.1419 11.1418 39.3786 10.7637 39.5878C9.74715 40.1507 8.85336 40.3512 8.35602 40.3512C8.34466 40.3512 8.33376 40.3511 8.32309 40.3509C8.43512 40.1957 8.6286 39.9803 8.94524 39.7269C9.22192 39.5054 9.33852 39.1394 9.2409 38.7987C9.14317 38.4579 8.85043 38.2091 8.49829 38.1679C7.64059 38.0673 7.09825 37.849 6.84431 37.6901C7.16247 37.4919 7.96684 37.1541 9.41434 37.1541C10.6132 37.1541 11.4894 37.4062 11.9096 37.6422C12.1769 37.7922 12.5028 37.7922 12.7701 37.6423C13.1906 37.4063 14.0669 37.1542 15.2657 37.1542C16.7133 37.1542 17.5176 37.4922 17.8356 37.6902C17.5818 37.8492 17.0393 38.0674 16.1814 38.168C15.8293 38.2094 15.5364 38.458 15.4388 38.7989C15.3408 39.1397 15.4574 39.5058 15.7344 39.7272ZM13.9762 50.4247L14.0064 50.5876C14.111 51.1521 14.3314 51.6702 14.6394 52.1206H9.41094C5.19103 52.1206 1.75781 48.996 1.75781 45.155C1.75781 42.5302 3.36186 40.2408 5.72388 39.0537C5.99517 39.2562 6.33337 39.4308 6.73462 39.5717C6.57548 39.8434 6.46462 40.1357 6.43849 40.4405C6.4038 40.8457 6.52779 41.2306 6.78794 41.5242C7.13165 41.9123 7.65923 42.1091 8.35602 42.1091C9.28461 42.1091 10.503 41.7415 11.6151 41.1258C11.8712 40.9841 12.1133 40.8345 12.3399 40.6781C12.5664 40.8343 12.8085 40.984 13.0647 41.1259C14.1768 41.7415 15.3952 42.109 16.3238 42.1091H16.3239C17.0205 42.1091 17.5481 41.9123 17.8916 41.5243C18.1519 41.2307 18.276 40.8458 18.2412 40.4405C18.2151 40.1357 18.1042 39.8434 17.9451 39.5717C18.3463 39.4307 18.6847 39.2561 18.9559 39.0537C20.8292 39.9952 22.225 41.63 22.7227 43.5757L16.5065 45.9371C14.6869 46.6285 13.6228 48.5157 13.9762 50.4247ZM46.3379 51.2935C45.9045 51.8124 45.2667 52.1101 44.5881 52.1103L43.6656 52.1107L43.0893 48.9988C43.0008 48.5215 42.5425 48.2059 42.065 48.2946C41.5878 48.3829 41.2725 48.8415 41.3608 49.3188L41.8781 52.1113L38.8539 52.1124L38.4643 50.0081C38.3758 49.5308 37.9174 49.2156 37.44 49.3039C36.9628 49.3923 36.6474 49.8508 36.7358 50.3281L37.0663 52.1131L30.0321 52.1158L29.5027 49.2579C29.4141 48.7806 28.9559 48.4653 28.4783 48.5538C28.001 48.6422 27.6858 49.1008 27.7741 49.5781L28.2444 52.1165L17.9737 52.1205C17.9734 52.1205 17.9732 52.1205 17.973 52.1205C16.8747 52.1205 15.9335 51.3412 15.7345 50.2671L15.7042 50.1042C15.5056 49.0312 16.1054 47.9699 17.1304 47.5803L20.5847 46.2681L20.8421 47.657C20.9205 48.0801 21.2898 48.3759 21.7051 48.3759C21.7584 48.3759 21.8123 48.371 21.8664 48.361C22.3436 48.2726 22.6588 47.814 22.5703 47.3367L22.2548 45.6336L27.3823 43.6857C27.836 43.5134 28.0642 43.0057 27.8918 42.552C27.7194 42.0981 27.2112 41.87 26.7581 42.0424L24.3721 42.9489C23.7027 40.579 21.9831 38.5994 19.7028 37.4652C19.6312 37.0049 19.3032 36.3396 18.1168 35.8711C17.3411 35.5648 16.3284 35.3962 15.2655 35.3962C14.534 35.3962 13.8355 35.4769 13.2188 35.624V35.0931C13.2188 34.6077 12.8254 34.2142 12.3399 34.2142C12.1347 34.2142 11.9465 34.285 11.7969 34.4029C11.6582 33.4861 11.5807 32.555 11.5678 31.6107H40.1952C40.6807 31.6107 41.0741 31.2172 41.0741 30.7318C41.0741 30.2464 40.6807 29.8529 40.1952 29.8529H39.8355C40.3952 28.7002 40.7114 27.4079 40.7114 26.0421C40.7114 25.2666 40.118 24.6278 39.362 24.5553C39.6911 24.2449 40.102 24.0356 40.56 23.9558C40.6941 23.9325 40.8303 23.9206 40.9648 23.9206C42.0996 23.9206 43.0638 24.7324 43.2575 25.8506C43.2799 25.9801 43.2914 26.1137 43.2915 26.2478C43.2921 26.703 43.6401 27.0824 44.0935 27.1223C45.1438 27.2145 46.0032 28.0045 46.1833 29.0432C46.2311 29.3194 46.2251 29.592 46.1772 29.8529H45.2342C44.7487 29.8529 44.3553 30.2464 44.3553 30.7318C44.3553 31.2172 44.7487 31.6107 45.2342 31.6107H52.0653C52.0435 33.2229 51.8358 34.7978 51.4485 36.3258L46.6853 39.1376C46.394 38.1237 45.7169 37.2637 44.784 36.7415C43.7376 36.1559 42.4941 36.0644 41.3727 36.4903L31.5628 40.2171C31.1089 40.3895 30.8809 40.8972 31.0533 41.3509C31.2257 41.8048 31.7338 42.0326 32.1869 41.8604L33.4793 41.3695L33.8805 43.536C33.9589 43.9591 34.3283 44.255 34.7437 44.255C34.7968 44.255 34.8507 44.2501 34.9049 44.2402C35.382 44.1518 35.6974 43.6932 35.609 43.2159L35.1495 40.7351L41.9967 38.1339C42.6311 37.8929 43.334 37.9446 43.9255 38.2757C44.5158 38.606 44.9248 39.1756 45.0476 39.8379L46.8257 49.4373C46.9483 50.0993 46.7705 50.7758 46.3379 51.2935ZM49.4738 44.4139C49.0638 44.4893 48.7632 44.8423 48.7539 45.2591C48.7448 45.6759 49.0298 46.0418 49.4361 46.1349L55.9798 47.6359L55.8163 48.7326L48.2303 47.3694L47.0445 40.967L53.652 37.0665L54.2024 38.0412L48.6292 41.7667C48.2827 41.9984 48.1465 42.4416 48.3033 42.8278C48.46 43.2141 48.8666 43.4372 49.2766 43.3618L58.0311 41.7537L58.2261 42.806L49.4738 44.4139Z" fill="white"/>
</svg>
