<svg width="60" height="60" viewBox="0 0 60 60" fill="none" xmlns="http://www.w3.org/2000/svg">
<g clip-path="url(#clip0)">
<path d="M36.0759 48.4112C36.3753 48.5527 36.7236 48.5518 37.0221 48.4103C39.3851 47.2888 41.6556 45.1542 41.6528 42.4044C41.6496 39.7403 38.3858 38.4155 36.5433 40.2919C34.6642 38.4077 31.4305 39.7604 31.4328 42.415C31.436 45.222 33.8333 47.3529 36.0759 48.4112ZM35.5028 41.8025C35.6653 42.089 36.0887 42.4049 36.5749 42.3912C36.991 42.3811 37.3709 42.1403 37.5797 41.8048C38.3061 40.6366 39.8936 41.2198 39.895 42.4063C39.8969 44.3005 38.1903 45.8148 36.5456 46.6827C34.8756 45.8221 33.1929 44.2936 33.1911 42.4131C33.1902 41.1566 34.8738 40.6956 35.5028 41.8025Z" fill="white"/>
<path d="M31.1197 59.1211C31.1197 59.6063 31.5129 60 31.9986 60H47.9256C49.1624 60 50.1691 58.9938 50.1691 57.757C50.1691 56.4427 50.1691 45.7086 50.1691 44.3939C50.1691 43.9087 49.7754 43.515 49.2902 43.515C48.8045 43.515 48.4108 43.9087 48.4108 44.3939V48.6296H43.8313C42.5945 48.6296 41.5883 49.6358 41.5883 50.8731V58.2422H31.9986C31.5134 58.2422 31.1197 58.6354 31.1197 59.1211ZM43.3461 50.8731C43.3461 50.6053 43.564 50.3874 43.8313 50.3874H48.4113V57.7565C48.4113 58.0243 48.1934 58.2422 47.9256 58.2422H43.3461V50.8731Z" fill="white"/>
<path d="M50.1691 39.4469C50.1691 34.2503 45.7191 32.3611 45.5301 32.2833C45.5246 32.281 45.5186 32.2787 45.5132 32.2765L35.0052 28.2069V25.7428C36.682 24.4386 37.8419 22.5027 38.1258 20.295C40.0575 20.0336 41.6524 18.485 41.6524 16.5866C41.6524 15.7388 41.3333 14.9258 40.746 14.2612V10.8929C40.746 4.88663 35.8598 0 29.8535 0C23.8472 0 18.9606 4.88663 18.9606 10.8929V14.3372C18.3746 14.989 18.0542 15.7777 18.0542 16.5866C18.0542 18.4781 19.6408 20.0322 21.5804 20.295C21.871 22.5824 23.0914 24.5746 24.879 25.8728V28.2074C24.8685 28.2115 14.3761 32.2787 14.3655 32.2833C14.176 32.3611 9.72656 34.2499 9.72656 39.4469V57.757C9.72656 58.9938 10.7332 60 11.9701 60H27.897C28.3823 60 28.7759 59.6063 28.7759 59.1211C28.7759 58.6354 28.3823 58.2422 27.897 58.2422H18.3078V50.8731C18.3078 49.6358 17.3012 48.6296 16.0643 48.6296H11.4844V39.4469C11.4844 35.489 14.8238 33.999 15.0284 33.9116L22.3389 31.0771C23.5666 33.6996 27.0667 35.0212 29.9419 35.0212C32.8134 35.0212 36.3171 33.7019 37.5453 31.0762L44.8668 33.9116C45.0252 33.9798 48.4108 35.4895 48.4108 39.4469V40.2924C48.4108 40.7776 48.8045 41.1713 49.2897 41.1713C49.7754 41.1713 50.1686 40.7776 50.1686 40.2924V39.4469H50.1691ZM11.4844 50.3874H16.0643C16.3316 50.3874 16.5495 50.6053 16.5495 50.8731V58.2422H11.9696C11.7023 58.2422 11.4844 58.0243 11.4844 57.757V50.3874ZM39.895 16.5866C39.895 17.5017 39.1022 18.2588 38.1958 18.4937V14.6823C39.1562 14.9341 39.895 15.7082 39.895 16.5866ZM21.5112 18.4941C20.6035 18.2588 19.812 17.5003 19.812 16.5866C19.812 15.7104 20.657 15.0023 21.5112 14.7354V18.4941ZM21.5488 12.919C21.2677 12.9689 20.9889 13.0463 20.7184 13.1493V10.8929C20.7184 5.85571 24.8163 1.75781 29.8531 1.75781C34.8903 1.75781 38.9882 5.85571 38.9882 10.8929V13.0856C38.7204 12.9913 38.4357 12.9245 38.1958 12.8879C38.1958 12.6851 38.1995 12.5258 38.1596 12.3679C38.0447 11.9128 37.5737 11.4908 35.5092 9.27338C34.861 8.57666 34.0425 8.54416 33.4319 8.94333C30.3699 10.9438 26.6354 11.949 23.188 11.7014C22.4112 11.6423 21.7168 12.1687 21.5488 12.919ZM23.269 19.2403C23.269 18.5587 23.269 14.0479 23.269 13.4683C27.0021 13.6862 30.9819 12.6009 34.254 10.5052C35.5179 11.8625 36.216 12.5885 36.438 12.8609V19.2403C36.438 22.8465 33.4964 25.7135 29.9689 25.7176C29.9657 25.7176 29.9629 25.7181 29.9602 25.7181C29.9579 25.7181 29.9556 25.7176 29.9533 25.7176C25.9534 25.7149 23.269 22.6103 23.269 19.2403ZM33.2474 26.7906V28.4811C32.3808 29.4182 31.1783 29.9258 29.9419 29.9258C28.699 29.9258 27.5034 29.4182 26.6368 28.4811V26.846C27.7057 27.2758 28.8593 27.4759 29.9602 27.4759C31.1064 27.4759 32.2389 27.2319 33.2474 26.7906ZM25.144 31.777C24.6533 31.4374 24.256 30.9764 23.9836 30.4399L25.5107 29.8476C26.6473 30.9869 28.2266 31.6837 29.9419 31.6837C31.61 31.6837 33.2034 31.0199 34.3735 29.8476L35.901 30.439C34.6454 32.9141 29.2699 34.6298 25.144 31.777Z" fill="white"/>
</g>
<defs>
<clipPath id="clip0">
<rect width="60" height="60" fill="white"/>
</clipPath>
</defs>
</svg>
