<svg width="32" height="32" viewBox="0 0 32 32" fill="none" xmlns="http://www.w3.org/2000/svg">
<path d="M16 0.639893C7.5168 0.639893 0.639999 7.51669 0.639999 15.9999C0.639999 24.4831 7.5168 31.3599 16 31.3599C24.4832 31.3599 31.36 24.4831 31.36 15.9999C31.36 7.51669 24.4832 0.639893 16 0.639893ZM21.9072 17.9695C21.9072 17.9695 23.2656 19.3103 23.6 19.9327C23.6096 19.9455 23.6144 19.9583 23.6176 19.9647C23.7536 20.1935 23.7856 20.3711 23.7184 20.5039C23.6064 20.7247 23.2224 20.8335 23.0912 20.8431H20.6912C20.5248 20.8431 20.176 20.7999 19.7536 20.5087C19.4288 20.2815 19.1088 19.9087 18.7968 19.5455C18.3312 19.0047 17.928 18.5375 17.5216 18.5375C17.47 18.5374 17.4187 18.5455 17.3696 18.5615C17.0624 18.6607 16.6688 19.0991 16.6688 20.2671C16.6688 20.6319 16.3808 20.8415 16.1776 20.8415H15.0784C14.704 20.8415 12.7536 20.7103 11.0256 18.8879C8.9104 16.6559 7.0064 12.1791 6.9904 12.1375C6.8704 11.8479 7.1184 11.6927 7.3888 11.6927H9.8128C10.136 11.6927 10.2416 11.8895 10.3152 12.0639C10.4016 12.2671 10.7184 13.0751 11.2384 13.9839C12.0816 15.4655 12.5984 16.0671 13.0128 16.0671C13.0905 16.0662 13.1668 16.0464 13.2352 16.0095C13.776 15.7087 13.6752 13.7807 13.6512 13.3807C13.6512 13.3055 13.6496 12.5183 13.3728 12.1407C13.1744 11.8671 12.8368 11.7631 12.632 11.7247C12.7149 11.6103 12.8241 11.5176 12.9504 11.4543C13.3216 11.2687 13.9904 11.2415 14.6544 11.2415H15.024C15.744 11.2511 15.9296 11.2975 16.1904 11.3631C16.7184 11.4895 16.7296 11.8303 16.6832 12.9967C16.6688 13.3279 16.6544 13.7023 16.6544 14.1439C16.6544 14.2399 16.6496 14.3423 16.6496 14.4511C16.6336 15.0447 16.6144 15.7183 17.0336 15.9951C17.0883 16.0294 17.1515 16.0477 17.216 16.0479C17.3616 16.0479 17.8 16.0479 18.9872 14.0111C19.3533 13.3555 19.6715 12.6743 19.9392 11.9727C19.9632 11.9311 20.0336 11.8031 20.1168 11.7535C20.1782 11.7222 20.2463 11.7063 20.3152 11.7071H23.1648C23.4752 11.7071 23.688 11.7535 23.728 11.8735C23.7984 12.0639 23.7152 12.6447 22.4144 14.4063L21.8336 15.1727C20.6544 16.7183 20.6544 16.7967 21.9072 17.9695Z" fill="#0B182F"/>
</svg>
